<svg xmlns="http://www.w3.org/2000/svg" width="344" height="344"><path fill="#3c70ee" d="M243 0c43.26 18.208 81.734 56.784 100 100 17.628 44.407 17.803 100.95-.878 145.074-19.029 42.7-57.584 81.415-101.217 98.759-44.688 16.804-101.152 16.895-145.035-2.624-42.333-19.678-81.057-58.374-97.494-102.44-16.016-45.228-15.89-101.996 4.331-145.93C36.86 21.662 107.457-15.943 243 0"/><path fill="#71abf0" d="M243 72h47v43h31l-1 4h2c1.726 3 2.246 5.136 2.227 8.585v2.73l-.032 2.92-.008 3.009c-.011 3.169-.037 6.337-.062 9.506q-.016 3.225-.027 6.45A4137 4137 0 0 1 324 168h-2c-1.063 6.296-1.32 12.563-1.562 18.938l-.235 5.92-.116 2.94L320 198c-14.298.705-28.548 1.065-42.86.977-4.806-.025-9.613-.022-14.42-.022a923 923 0 0 1-12.304-.082c-24.998-.873-24.998-.873-46.84 9.875-2.383 1.894-4.989 3.32-7.642 4.799-1.357.79-1.357.79-2.74 1.598l-2.756 1.605c-6.17 3.595-12.34 7.19-18.5 10.8a2076 2076 0 0 1-32.544 18.679c-7.3 4.114-14.503 8.373-21.663 12.727C103.855 267.382 103.855 267.382 99 269v2q-9.009.219-18.018.427-3.048.072-6.096.146-8.933.216-17.865.368c-3.078.06-6.156.146-9.233.23q-2.973.058-5.944.11l-2.763.096c-5.418.065-8.397-.415-12.456-4.377-1.648-2.25-1.648-2.25-2.625-4l1-3-4-1v-51c2.958-1.48 5.955-1.122 9.195-1.098l2.144.005c2.262.005 4.524.018 6.786.03q2.299.008 4.598.014 5.638.017 11.277.049c1.676 11.243 2.593 25.025-1 36-2.416 1.859-3.92 3-7 3v2l-1.772.076q-3.99.176-7.978.362l-2.79.119-2.694.127-2.476.11c-2.193.197-4.174.609-6.29 1.206-.043 2-.04 4 0 6l1 1 .375-1.875C25 254 25 254 27 252c3.333-.455 6.702-.324 10.063-.312l2.779-.05 2.756-.001 2.484-.01C48 252 48 252 57 255l1-48H23l-1-4h2v3l33-1 1-3h3v3c3.835-.023 7.666-.1 11.5-.187l3.266-.018c6.757-.185 12.2-.94 17.234-5.795l1-3-3.09 2.47c-6.084 3.776-12.543 3.155-19.472 3.018q-2.103-.014-4.204-.021a1100 1100 0 0 1-10.988-.124c-3.747-.051-7.495-.074-11.242-.099-7.335-.053-14.67-.138-22.004-.244v-1l2.242-.036q10.526-.173 21.048-.435c3.606-.09 7.212-.168 10.818-.222 3.49-.052 6.977-.134 10.465-.233 1.96-.05 3.92-.07 5.88-.09C82.064 198.706 87.838 196.76 95 192c1.02-.63 2.042-1.258 3.094-1.906l2.406-1.594c4.418-2.856 8.92-5.424 13.555-7.906a471 471 0 0 0 9.882-5.531l1.79-1.025c4.865-2.792 9.706-5.625 14.546-8.46a324 324 0 0 1 7.165-4.016c4.658-2.57 9.162-5.373 13.683-8.175 4.727-2.92 9.49-5.778 14.254-8.637l2.558-1.537a610 610 0 0 1 17.442-10.088c2.794-1.591 5.46-3.327 8.125-5.125 5.617-3.776 10.937-7.079 17.5-9v-2c7.122-1.78 14.66-1 22-1z"/><path fill="#1d44c3" d="m297.822 197.963 4.782-.028 2.192-.025c4.82-.02 9.43.409 14.204 1.09l-1.438 2.563c-1.62 3.563-2.175 6.563-2.562 10.437l-3.75.813c-3.353.826-5.661 1.814-8.25 4.187l2 2-2.064.044c-3.083.075-6.166.171-9.249.269l-3.248.068-3.115.107-2.872.08c-2.866.505-3.532 1.352-5.452 3.432-3.188.188-3.188.188-6 0v-1a590 590 0 0 0-6.25-.125l-3.516-.07c-3.114.188-4.622.61-7.234 2.195l-2.438.938c-3.998 1.649-3.998 1.649-7.562 4.062-.896 3.6-.896 3.6-1 7h-1c-.95 5.576-1.131 10.942-1.098 16.591l.005 2.836q.006 3.03.018 6.061.019 4.79.024 9.58.018 10.154.051 20.307.037 11.797.056 23.593.01 4.731.032 9.462l.01 5.755.015 2.676c0 2.047-.05 4.093-.113 6.139-9.018 9.018-54.86 4.756-67.938 5.188l-2.47.084c-73.457 2.456-73.457 2.456-101.611-23.352-4.563-4.409-8.762-9.077-12.856-13.92l-2.023-2.391A265 265 0 0 1 34 274l1-2c14.242-.928 28.418-1.123 42.687-1.062q3.123.008 6.245.013 7.533.017 15.068.049v-2c1.625-1.191 1.625-1.191 4-2.562l2.77-1.61c4.328-2.45 8.665-4.882 13.007-7.308a436 436 0 0 0 13.285-7.77c6.157-3.737 12.407-7.29 18.688-10.812 9.856-5.532 19.59-11.255 29.3-17.041 8-4.761 16.046-9.429 24.154-14.005l2.37-1.341 2.019-1.136c2.33-1.279 2.33-1.279 3.889-2.662 6.8-5.245 14.677-4.484 22.854-4.46q2.406-.02 4.814-.046c4.218-.04 8.435-.05 12.654-.054 4.233-.01 8.467-.047 12.7-.082 7.7-.058 15.4-.096 23.1-.103q4.609-.006 9.218-.045"/><path fill="#2657df" d="M49 77c1.187 2.374 1.12 3.802 1.114 6.45v2.79l-.016 3.018-.005 3.085c-.005 3.26-.018 6.521-.03 9.782q-.008 3.31-.014 6.621Q50.032 116.873 50 125c1.21-.99 1.21-.99 1.12-2.905l-.006-2.523v-2.851l-.016-3.1-.005-3.157c-.005-3.342-.018-6.684-.03-10.026q-.008-3.39-.014-6.78Q51.032 85.33 51 77h1v46h10v-2l3.125.125c3.782-.122 6.34-.896 9.875-2.125 2.875-.125 2.875-.125 5 0v1l2.152-.035 2.785-.028 2.778-.035C90 120 90 120 91 121c3.074.125 6.126.186 9.201.205l2.927.03q4.813.047 9.626.081l6.654.063q8.777.082 17.553.153 8.949.077 17.896.161 17.572.162 35.143.307v1l-43 1 1 35 8-5h3v-2c2.813-1.562 2.813-1.562 6-3l3 1q-4.936 3.064-9.875 6.125l-2.781 1.727Q151.177 160.434 147 163l-2.646 1.628c-4.396 2.676-8.805 5.17-13.433 7.42-3.334 1.652-6.56 3.493-9.796 5.327l-2.118 1.197a565 565 0 0 0-19.292 11.467l-1.74 1.078a2056 2056 0 0 0-4.897 3.051c-1.016.605-2.031 1.21-3.078 1.832l-2.65 1.583c-4.157 1.759-7.566 1.892-12.03 1.929l-2.463.054c-2.577.054-5.154.088-7.732.121q-2.632.05-5.266.104c-4.286.085-8.572.152-12.859.209q8.166.149 16.333.22 2.775.03 5.552.082c2.666.048 5.331.071 7.998.089l2.491.062c5.42.002 8.217-1.044 12.626-4.453h2c-.383 2.377-.725 3.712-2.408 5.473-6.228 4.18-11.76 4.125-19.092 3.84l-3.36-.069q-4.07-.087-8.14-.244v-3l-1.524 1.976c-3.295 2.694-6.022 2.534-10.085 2.415l-2.203-.018a561 561 0 0 1-6.938-.123q-2.358-.03-4.715-.055c-3.845-.044-7.69-.113-11.535-.195v-3l-4 1-.07 2.234c-1.35 4.018-4.238 5.165-7.805 7.016l-1.934 1.063C7.497 215.775 4.913 217.029 2 218a2149 2149 0 0 1-1.243-44.521c-.123-6.897-.29-13.788-.568-20.68-2.021-51.393-2.021-51.393 9.869-64.403C21.471 77.206 33.267 73.537 49 77"/><path fill="#4987e0" d="M243 72h47v43h31v6h-7v47h-2v2h5v1l-3 .184q-2 .125-4 .254l-2.075.132c-3.62.241-7.207.548-10.8 1.055L294 173l-1-1v-6h-21l-1-3h31l-.176-7.988q-.057-3.828-.099-7.655-.038-2.662-.102-5.323c-.06-2.55-.09-5.097-.111-7.647l-.078-2.406c-.002-2.244-.002-2.244.566-5.981 2.425-2.04 3.816-3 7-3l-1-2-18-1v-3h-6v2l4-1v2h-6v-3h-38v4h-17v-3l-2 1q-.112 10.84-.165 21.68-.022 3.69-.061 7.38c-.037 3.53-.054 7.059-.067 10.588-.015 1.106-.03 2.21-.047 3.35v3.093l-.02 2.732L225 170l3 2h-9v4l-3 1-1 3c-1.64.03-1.64.03-3.312.063-6.093.795-11.214 3.806-15.688 7.937-1.102 2.492-1.53 4.476-1.754 7.18L194 197l-2 1c-.658 3.03-.658 3.03-1 6l-5-1v-7h-2c.118-1.748.118-1.748 1-4a58 58 0 0 1 6.117-4.04l1.858-1.111a749 749 0 0 1 5.9-3.474q1.98-1.174 3.957-2.352 3.63-2.16 7.273-4.299A137 137 0 0 0 216 173l-1-3a81 81 0 0 1-.062-4.687l.027-2.45L215 161l-2-1c.063-2.25.063-2.25 1-5 2.23-1.678 4.474-2.76 7-4l-1.437-2.187c-1.505-2.708-2.129-4.775-2.563-7.813l5-1 1-4-7 1-1-5c-1.683-.84-1.683-.84-4-1-3.068 1.35-3.068 1.35-6.297 3.402l-1.799 1.08a707 707 0 0 0-5.654 3.456l-3.848 2.326A1463 1463 0 0 0 184 147l-1-3-2 1 .219 3.363c1.031 17.539.878 35.076.781 52.637h-2v2l4-1 1 2-3.402.113c-8.024.33-15.095.75-22.598 3.887 2.191-2.357 4.44-4.02 7.188-5.687l2.167-1.325L170 200h-2v-43c-6.484 3.537-12.889 7.045-19.187 10.875l-2.018 1.219q-2.4 1.45-4.795 2.906l-1-3-2 1v56h-2v2h5v1l-3.36.148-4.39.227-2.21.094c-3.869.21-6.666.661-10.04 2.531h-4v2l-1.687.188c-3.34 1.173-5.028 3.156-7.313 5.812-.861 2.173-.861 2.173-1 4l-4 1c-.575 3.735-1 7.213-1 11h-2l-.437 1.875C100 260 100 260 99 262h2v3l-3.312.938A170 170 0 0 0 91 268l-1 2h9v1q-9.009.219-18.018.427-3.048.072-6.096.146-8.933.216-17.865.368c-3.078.06-6.156.146-9.233.23q-2.973.058-5.944.11l-2.763.096c-5.418.065-8.397-.415-12.456-4.377-1.648-2.25-1.648-2.25-2.625-4l1-3-4-1v-51c2.958-1.48 5.955-1.122 9.195-1.098l2.144.005c2.262.005 4.524.018 6.786.03q2.299.008 4.598.014 5.638.017 11.277.049c1.676 11.243 2.593 25.025-1 36-2.416 1.859-3.92 3-7 3v2l-1.772.076q-3.99.176-7.978.362l-2.79.119-2.694.127-2.476.11c-2.193.197-4.174.609-6.29 1.206-.043 2-.04 4 0 6l1 1 .375-1.875C25 254 25 254 27 252c3.333-.455 6.702-.324 10.063-.312l2.779-.05 2.756-.001 2.484-.01C48 252 48 252 57 255l1-48H23l-1-4h2v3l33-1 1-3h3v3c3.835-.023 7.666-.1 11.5-.187l3.266-.018c6.757-.185 12.2-.94 17.234-5.795l1-3-3.09 2.47c-6.084 3.776-12.543 3.155-19.472 3.018q-2.103-.014-4.204-.021a1100 1100 0 0 1-10.988-.124c-3.747-.051-7.495-.074-11.242-.099-7.335-.053-14.67-.138-22.004-.244v-1l2.242-.036q10.526-.173 21.048-.435c3.606-.09 7.212-.168 10.818-.222 3.49-.052 6.977-.134 10.465-.233 1.96-.05 3.92-.07 5.88-.09C82.064 198.706 87.838 196.76 95 192c1.02-.63 2.042-1.258 3.094-1.906l2.406-1.594c4.418-2.856 8.92-5.424 13.555-7.906a471 471 0 0 0 9.882-5.531l1.79-1.025c4.865-2.792 9.706-5.625 14.546-8.46a324 324 0 0 1 7.165-4.016c4.658-2.57 9.162-5.373 13.683-8.175 4.727-2.92 9.49-5.778 14.254-8.637l2.558-1.537a610 610 0 0 1 17.442-10.088c2.794-1.591 5.46-3.327 8.125-5.125 5.617-3.776 10.937-7.079 17.5-9v-2c7.122-1.78 14.66-1 22-1z"/><path fill="#42709d" d="M243 0c43.26 18.208 81.734 56.784 100 100 17.628 44.407 17.803 100.95-.878 145.074-19.029 42.7-57.584 81.415-101.217 98.759-44.688 16.804-101.152 16.895-145.035-2.624-42.333-19.678-81.057-58.374-97.494-102.44-16.016-45.228-15.89-101.996 4.331-145.93C36.86 21.662 107.457-15.943 243 0M81.118 21.502C78.872 24.15 76.482 26.572 74 29l-4.575 4.59q-6.469 6.493-12.943 12.98a9615 9615 0 0 0-7.807 7.83q-3.789 3.805-7.584 7.604l-2.884 2.894q-2.008 2.018-4.02 4.029l-2.31 2.316C30 73 30 73 28 74v3l-1.678.819C15.985 83.077 6.41 89.9 2 101c-4.13 17.214-2.23 36.12-1.585 53.694.25 6.913.368 13.827.478 20.744A2275 2275 0 0 0 2 218c4.17-1.615 7.982-3.577 11.813-5.875l1.81-1.027c1.929-1.114 1.929-1.114 4.377-3.098v-4h3v3h35l-1 48-9-3c-2.821-.44-2.821-.44-5.367-.398l-2.742-.012-2.766.035-2.836-.035-2.719.012-2.445.01c-2.642.482-3.553 1.235-5.125 3.388v3c-1-1-1-1-1.062-4.062L23 251c2.955-.834 5.701-1.179 8.766-1.316l2.695-.127 2.789-.12 2.836-.13q3.457-.159 6.914-.307v-2l2.375-.937c2.548-.992 2.548-.992 4.625-2.063 2.814-11.71 2.765-24.163 1-36q-6.78-.037-13.562-.055a1966 1966 0 0 1-4.615-.02c-2.21-.013-4.419-.018-6.628-.023l-2.09-.015c-3.676-.05-3.676-.05-7.105 1.113v51l4 1-1 3 1.574 1.574L32 272l2.384 2.243c2.726 2.873 4.644 5.735 6.713 9.108 5.686 8.962 12.032 17.324 18.84 25.462l1.879 2.245c17.24 20.163 35.715 30.475 61.986 32.54 17.012 1.159 34.043.95 51.073.402l2.487-.077c17.52-.555 35.012-1.451 52.49-2.81l3.712-.288c5.083.036 5.083.036 9.436-1.825.09-2.946.115-5.869.098-8.815l-.005-2.804q-.006-3.025-.018-6.052-.019-4.79-.024-9.583c-.013-7.94-.037-15.881-.061-23.822q-.03-10.044-.046-20.09-.01-4.714-.032-9.43l-.01-5.813-.015-2.639c0-4.76.314-9.257 1.113-13.952h1l.063-3.25c.937-3.75.937-3.75 4.125-6.062 3.174-1.529 6.44-2.668 9.812-3.688l2-1c1.977-.097 3.958-.13 5.938-.125l3.214-.008C273 222 273 222 276 223c2.611-.239 2.611-.239 5-1l1-2 58-1c7.72-50.613 15.009-104.889-16.863-148.723-7.086-9.535-14.982-18.27-23.324-26.714l-1.574-1.597c-33.27-33.56-67.727-47.28-114.873-47.69-5.54-.008-11.077.095-16.616.224-.78.015-1.559.03-2.362.047-10.612.214-21.163.75-31.737 1.681-2.064.175-4.13.323-6.197.466-21.362 1.688-32.143 8.772-45.336 24.808"/><path fill="#3265ea" d="M186.735 74.886h3.64l3.945.016 4.027.005q5.303.006 10.604.024 5.409.014 10.819.02 10.614.016 21.23.049c1.613 3.226 1.12 6.747 1.098 10.29l-.005 2.48c-.005 2.618-.018 5.236-.03 7.855q-.008 2.66-.014 5.32-.017 6.527-.049 13.055h-16l-1 3h-4v2l-1.574.77c-4.622 2.28-9.078 4.628-13.344 7.539-4.8 3.27-9.665 6.133-14.797 8.847a159 159 0 0 0-7.601 4.563c-15.58 9.897-15.58 9.897-24.684 11.281v2l-12 6v-36H97v-1c-7.14-1.904-13.633-2.2-21-2h-3a414 414 0 0 0-6.941.879C64 122 64 122 62 121v2H52V77c31.005-1.117 61.979-1.106 93-1 .912 3.383 1.116 6.345 1.098 9.86l-.01 3.378-.025 3.512-.014 3.559q-.018 4.346-.049 8.691h2V76l6.71.035q3.212.011 6.425.02 2.235.008 4.47.02c2.14.013 4.279.018 6.418.023l3.904.016c3.813-.141 6.846-1.236 10.808-1.228"/><path fill="#0e2691" d="m297.822 197.963 4.782-.028 2.192-.025c4.82-.02 9.43.409 14.204 1.09l-1.438 2.563c-1.624 3.573-2.088 6.566-2.562 10.437l-2.629.078c-22.212.97-43.92 4-65.297 10.088-7.206 1.955-14.51 3.56-21.791 5.21a133.7 133.7 0 0 0-20.555 6.59c-3.223 1.222-6.314 1.632-9.728 2.034-2.046.676-4.035 1.451-6.04 2.242-5.404 2.089-10.933 3.174-16.628 4.098-2.642.748-4.248 1.901-6.332 3.66v-3l-3.313 1.5C159 246 159 246 156 246l-1 1-3.5 1.688c-3.095 1.715-3.395 1.948-4.438 5.562L147 257h2v8c4.943 1.153 9.957 1.54 15 2v1l-17 1v17h-1v-16l-11 1v1l10 1c1.4 30.333 1.4 30.333 0 43l-6.152.684c-1.86.135-1.86.135-2.848 1.316-18.495 3.8-46.416 8.003-63.349-3.094-7.558-5.425-14.05-12.03-20.276-18.906l-1.444-1.594A338 338 0 0 1 34 274l1-2c14.242-.928 28.418-1.123 42.687-1.062q3.123.008 6.245.013 7.533.017 15.068.049v-2c1.625-1.191 1.625-1.191 4-2.562l2.77-1.61c4.328-2.45 8.665-4.882 13.007-7.308a436 436 0 0 0 13.285-7.77c6.157-3.737 12.407-7.29 18.688-10.812 9.856-5.532 19.59-11.255 29.3-17.041 8-4.761 16.046-9.429 24.154-14.005l2.37-1.341 2.019-1.136c2.33-1.279 2.33-1.279 3.889-2.662 6.8-5.245 14.677-4.484 22.854-4.46q2.406-.02 4.814-.046c4.218-.04 8.435-.05 12.654-.054 4.233-.01 8.467-.047 12.7-.082 7.7-.058 15.4-.096 23.1-.103q4.609-.006 9.218-.045"/><path fill="#3063e5" d="m148 2 .113 3.578q.099 2.336.2 4.672l.068 2.355c.204 4.341.393 7.177 3.619 10.395l1 1c2.208.124 4.42.178 6.631.205l2.099.03q3.45.046 6.899.081l4.771.063q6.291.083 12.582.153 6.414.077 12.829.161 12.594.162 25.189.307v1l-59 1v1h-16l1 6q.342 2.622.625 5.25c.095.85.19 1.702.29 2.578C151 44 151 44 150 46c-.283 4.163-.136 8.201.563 12.313.445 2.737.113 4.069-.563 6.687l.625 2.563L151 70c-1.437 1.813-1.437 1.813-3 3l-1-6-1 7c-4.152.777-8.111 1.145-12.333 1.205l-3.768.06q-2.034.027-4.067.051l-4.268.064q-5.7.082-11.4.152-3.524.045-7.047.095c-25.04.344-50.075.512-75.117.373v-2c1.429-1.409 1.429-1.409 3.429-3.06 4.813-4.096 9.255-8.497 13.708-12.98l2.553-2.556q4.001-4.012 7.998-8.029l5.4-5.414c6.014-6.03 6.014-6.03 12.02-12.068a362 362 0 0 1 4.724-4.624c2.212-2.315 3.856-4.67 5.598-7.351C99.863-4.281 122.778-.112 148 2"/><path fill="#585592" d="M243 72h47v43h31v6h-7v47h-2v2h5v1l-3 .184q-2 .125-4 .254l-2.075.132c-3.62.241-7.207.548-10.8 1.055L294 173l-1-1v-6h-21l-1-3h31l-.176-7.988q-.057-3.828-.099-7.655-.038-2.662-.102-5.323c-.06-2.55-.09-5.097-.111-7.647l-.078-2.406c-.002-2.244-.002-2.244.566-5.981 2.425-2.04 3.816-3 7-3l-1-2-18-1v-3h-6v2l4-1v2h-6v-3h-38v4h-17v-3l-2 1q-.112 10.84-.165 21.68-.022 3.69-.061 7.38c-.037 3.53-.054 7.059-.067 10.588-.015 1.106-.03 2.21-.047 3.35v3.093l-.02 2.732L225 170l3 2h-9v4l-3 1-1 3c-1.64.03-1.64.03-3.312.063-6.093.795-11.214 3.806-15.688 7.937-1.102 2.492-1.53 4.476-1.754 7.18L194 197l-2 1c-.658 3.03-.658 3.03-1 6l-5-1v-7h-2c.118-1.748.118-1.748 1-4a58 58 0 0 1 6.117-4.04l1.858-1.111a749 749 0 0 1 5.9-3.474q1.98-1.174 3.957-2.352 3.63-2.16 7.273-4.299A137 137 0 0 0 216 173l-1-3a81 81 0 0 1-.062-4.687l.027-2.45L215 161l-2-1c.063-2.25.063-2.25 1-5 2.23-1.678 4.474-2.76 7-4l-1.437-2.187c-1.505-2.708-2.129-4.775-2.563-7.813l5-1 1-4-7 1-1-5c-1.683-.84-1.683-.84-4-1-3.068 1.35-3.068 1.35-6.297 3.402l-1.799 1.08a707 707 0 0 0-5.654 3.456l-3.848 2.326A1463 1463 0 0 0 184 147l-1-3-2 1 .219 3.363c1.031 17.539.878 35.076.781 52.637h-2v2l4-1 1 2-3.402.113c-8.024.33-15.095.75-22.598 3.887 2.191-2.357 4.44-4.02 7.188-5.687l2.167-1.325L170 200h-2v-43c-6.484 3.537-12.889 7.045-19.187 10.875l-2.018 1.219q-2.4 1.45-4.795 2.906l-1-3-2 1v56h-2v2h5v1l-3.36.148-4.39.227-2.21.094c-3.869.21-6.666.661-10.04 2.531h-4v2l-4-1 22-13h-3l-1-6h2q.506-4.281 1-8.562c.095-.8.19-1.6.29-2.424.87-7.616.826-14.302-.95-21.78C134 179 134 179 135 176c-12.35 6.971-24.699 13.943-37 21l-1-2q-2.47 1.215-4.937 2.438l-2.778 1.37c-2.19.997-2.19.997-3.285 2.192-1.964.094-3.93.117-5.897.114h-3.822l-4.16-.016-4.233-.005q-5.58-.006-11.161-.024-5.691-.014-11.381-.02Q34.173 201.033 23 201v-1l2.242-.036q10.526-.173 21.048-.435c3.606-.09 7.212-.168 10.818-.222 3.49-.052 6.977-.134 10.465-.233 1.96-.05 3.92-.07 5.88-.09C82.064 198.706 87.838 196.76 95 192c1.02-.63 2.042-1.258 3.094-1.906l2.406-1.594c4.418-2.856 8.92-5.424 13.555-7.906a471 471 0 0 0 9.882-5.531l1.79-1.025c4.865-2.792 9.706-5.625 14.546-8.46a324 324 0 0 1 7.165-4.016c4.658-2.57 9.162-5.373 13.683-8.175 4.727-2.92 9.49-5.778 14.254-8.637l2.558-1.537a610 610 0 0 1 17.442-10.088c2.794-1.591 5.46-3.327 8.125-5.125 5.617-3.776 10.937-7.079 17.5-9v-2c7.122-1.78 14.66-1 22-1z"/><path fill="#2c5de2" d="M145 76c.912 3.383 1.116 6.345 1.098 9.86l-.01 3.378-.025 3.512-.014 3.559q-.018 4.346-.049 8.691h2v16l7-1c12.332-.475 24.69.325 37 1v1q-19.676.034-39.35.052-9.137.007-18.272.023-8.811.016-17.623.02-3.367.003-6.733.01-4.705.01-9.41.009l-2.83.01-2.587-.004-2.249.003C91 122 91 122 88 121c-1.999-.07-4-.085-6-.062l-3.187.027L76 121h-3a414 414 0 0 0-6.941.879C64 122 64 122 62 121v2H52V77c31.005-1.117 61.979-1.106 93-1"/><path fill="#2b54ce" d="m284.322 219.88 3.116.006h3.518l3.83.016 3.896.005q5.136.006 10.273.024 5.239.014 10.477.02 10.284.016 20.568.049c1.807 23.648 1.807 23.648-5.694 33.182a160 160 0 0 1-2.931 3.193l-1.524 1.699c-9.892 10.322-21.99 11.257-35.527 11.632-16.782.32-33.588-.527-50.324-1.706-2.424-18.325-2.424-18.325-1.75-26.812l.121-2.268c.457-6.922.457-6.922 2.629-9.92 1.988-1.668 1.988-1.668 4.313-3.187l2.3-1.543c2.5-1.33 4.61-1.81 7.387-2.27l2-1c2.165-.097 4.333-.13 6.5-.125l3.531-.008C274 221 274 221 276 222c3.097-.453 5.431-1.97 8.322-2.12"/><path fill="#1e4dd9" d="M146 124h1l1 35 8-5h3v-2c2.813-1.562 2.813-1.562 6-3l3 1q-4.936 3.064-9.875 6.125l-2.781 1.727Q151.177 160.434 147 163l-2.646 1.628c-4.396 2.676-8.805 5.17-13.433 7.42-3.334 1.652-6.56 3.493-9.796 5.327l-2.118 1.197a565 565 0 0 0-19.292 11.467l-1.74 1.078a2056 2056 0 0 0-4.897 3.051c-1.016.605-2.031 1.21-3.078 1.832l-2.65 1.583c-4.157 1.759-7.566 1.892-12.03 1.929l-2.463.054c-2.577.054-5.154.088-7.732.121q-2.632.05-5.266.104c-4.286.085-8.572.152-12.859.209q8.166.149 16.333.22 2.775.03 5.552.082c2.666.048 5.331.071 7.998.089l2.491.062c5.42.002 8.217-1.044 12.626-4.453h2c-.383 2.377-.725 3.712-2.408 5.473-6.228 4.18-11.76 4.125-19.092 3.84l-3.36-.069q-4.07-.087-8.14-.244v-3l-1.524 1.976c-3.295 2.694-6.022 2.534-10.085 2.415l-2.203-.018a561 561 0 0 1-6.938-.123q-2.358-.03-4.715-.055c-3.845-.044-7.69-.113-11.535-.195v-3l-4 1-.07 2.234c-1.35 4.018-4.238 5.165-7.805 7.016l-1.934 1.063C7.497 215.775 4.913 217.029 2 218v-46l20.563-1.062 6.45-.344q2.558-.129 5.116-.254l2.64-.147 2.58-.123 2.215-.114c3.164.057 6.303.596 9.436 1.044v-46h1v46h3v-2c5.227-1.206 9.765-.756 15 0v-2l3.438.5c2.273.356 2.273.356 4.562.5q3.002.49 6 1v2l44-1 1-2c3.063-.625 3.063-.625 6-1v-2h5v-2l5-2z"/><path fill="#1936a1" d="M311 212c-2.585 1.982-5.04 3.626-8 5l2 2-2.064.044c-3.083.075-6.166.171-9.248.268l-3.249.069-3.115.107-2.872.08c-2.866.505-3.532 1.352-5.452 3.432-3.187.188-3.187.188-6 0v-1a590 590 0 0 0-6.25-.125l-3.516-.07c-3.114.188-4.622.61-7.234 2.195l-2.437.938c-3.999 1.649-3.999 1.649-7.563 4.062-.896 3.6-.896 3.6-1 7h-1c-1.224 6.64-1.112 13.202-1.062 19.938l.013 3.517q.018 4.272.049 8.545-15.088.035-30.176.052-7.007.007-14.015.023-6.78.016-13.558.02-2.57.003-5.14.01c-22.666.07-22.666.07-30.111-1.105-2-2-2-2-2.187-5 .187-3 .187-3 1.187-5h-2c-.312-2.75-.312-2.75 0-6 2.313-2.375 2.313-2.375 5-4h3l-1-3h2v2l3.313-1.5C163 243 163 243 166 243l1 2 2-1.937c3.15-2.166 5.177-2.493 8.926-2.797 2.7-.346 5.045-1.364 7.554-2.383 4.63-1.623 9.452-2.616 14.227-3.723 3.248-.811 6.317-1.888 9.445-3.078 6.409-2.384 12.943-3.924 19.598-5.457 10.625-2.466 10.625-2.466 21.164-5.27 10.984-3.122 21.897-5.264 33.211-6.73l3.88-.509c8.035-.968 15.905-1.315 23.995-1.116"/><path fill="#c8c9d7" d="M244 117h38v3h6l-4-1v-2h6v3h18l1 3-6 3-1 37h-31l2 3c.125 2.688.125 2.688 0 5l-6-1 2-1v-47h-2l.07 2.922.055 3.828.07 3.797c-.183 3.234-.51 4.776-2.195 7.453l-1.125 2.25L263 144l2 2c-.242 1.945-.242 1.945-.875 4.125l-.617 2.195L263 154h-2v2h-2l-1 7c-10.338 1.156-20.616 1.098-31 1v2h2v5h-5v-52l3-1v3h17z"/><path fill="#020422" d="M295.394 197.978c2.407-.022 4.814-.036 7.221-.05l2.19-.023c4.817-.017 9.425.415 14.195 1.095l-1.437 2.562c-1.625 3.574-2.089 6.567-2.563 10.438l-2.629.078c-20.902.913-41.896 3.407-62.06 9.079l-2.76.769-2.386.7c-2.413.417-3.825-.016-6.165-.626a103 103 0 0 0-7 2v-2l-3.625 1.375L224 225l-3.312 1.25C218 227 218 227 215 226v2c-4.75 1.125-4.75 1.125-7 0l-1 3-1.687-.688c-3.247-.438-4.62.938-7.313 2.688-3.274 1.089-6.317 1.103-9.75 1.062l-2.984-.027L183 234v4c-3.946 1.706-7.203 2.093-11.437 2-4.65-.102-8.195.447-12.563 2l1-3-2.312 1.562L155 242l-3-1c3.75-3 3.75-3 6-3l.144-1.777c1.287-3.343 3.454-4.087 6.551-5.797l1.757-.986c1.885-1.054 3.779-2.09 5.673-3.128q1.944-1.082 3.885-2.17 2.877-1.612 5.759-3.215A389 389 0 0 0 195.375 213c5.874-3.567 11.815-6.99 17.797-10.371A105 105 0 0 0 219 199c3.049-.278 3.049-.278 6.848-.319l2.1-.03c2.3-.031 4.6-.048 6.9-.065q2.417-.028 4.835-.059c4.259-.051 8.518-.09 12.777-.128 4.267-.04 8.533-.091 12.8-.141 8.498-.097 16.997-.19 25.496-.243q2.319-.015 4.638-.037"/><path fill="#488ae3" d="m167 156 2 1-1 43 4-1c-2.191 2.357-4.44 4.02-7.187 5.688-.716.436-1.431.873-2.168 1.324L161 207l2.875-1.5c4.64-2.03 9.149-1.77 14.125-1.5v2l-5 1v-2l-2.937 2.375c-4.09 2.959-8.133 3.876-13.063 4.625l.035 2.633.028 3.492.035 3.445C157 225 157 225 156.37 228.117c-.427 3.322.3 4.872 1.629 7.883l-2.161 1.187c-12.891 7.089-25.744 14.2-38.305 21.867a319 319 0 0 1-13.584 7.846c-1.696.957-3.33 2.02-4.95 3.1-2.262.195-2.262.195-4.687.125l-2.45-.055L90 270l1-3h3l1-2h6v-3h-2l2-7h2l-.75-3.75c-.484-3.935-.484-3.935 1.375-6.437L106 243c3.543-3.435 3.543-3.435 6.563-7.312L114 234h4v-2c6.362-2.76 12.092-3.632 19-4v-2h2l-1-56 3-1 1 2 2.263-1.393a2227 2227 0 0 1 8.308-5.07q1.802-1.097 3.597-2.204a908 908 0 0 1 5.168-3.15l3.142-1.92z"/><path fill="#2653d8" d="M244 269h68c-3.987 4.652-7.942 9.088-12.265 13.394l-1.8 1.806a4130 4130 0 0 1-5.83 5.827l-4.07 4.073q-4.245 4.248-8.495 8.49a9597 9597 0 0 0-10.909 10.912q-4.19 4.197-8.387 8.387l-4.025 4.028a3640 3640 0 0 1-5.601 5.594l-1.69 1.696C245.115 337 245.115 337 244 337z"/><path fill="#74adf1" d="M320 119h2c1.726 3 2.246 5.136 2.227 8.585v2.73l-.032 2.92-.008 3.009c-.011 3.169-.037 6.337-.062 9.506q-.016 3.225-.027 6.45A4137 4137 0 0 1 324 168h-2c-1.063 6.296-1.32 12.563-1.562 18.938l-.235 5.92-.116 2.94L320 198c-19.408.888-38.76 1.126-58.187 1.063q-4.08-.008-8.159-.014-9.827-.017-19.654-.049l1-5 6 1v2l14-1v-2c2.955-2.744 3.775-3 8-3l1-5h-1v-14h7l1-3 1 1 1-4h20l1 6 18-2v-2h2v-47l6-1z"/><path fill="#fcd62a" d="M243 72h47v43c-14.943 1.15-14.943 1.15-21.707 1.098l-1.986-.003c-2.373-.006-4.746-.02-7.12-.032L243 116z"/><path fill="#1b44cb" d="M242 312h1c.029 4.48.047 8.958.063 13.438l.025 3.876.01 3.682.016 3.412C243 339 243 339 242 340c-2.891.095-5.759.126-8.65.114h-2.75c-3.014 0-6.028-.009-9.041-.016l-6.251-.005q-8.244-.006-16.488-.024-8.405-.014-16.81-.02-16.506-.016-33.01-.049-.252-3.156-.5-6.312l-.281-3.551c-.214-3.06-.219-6.072-.219-9.137 2.757-1.378 5.085-1.217 8.168-1.316l3.861-.127 4.159-.12 4.258-.133a606 606 0 0 1 24.492-.241c8.954.088 17.75-.513 26.663-1.347 7.5-.691 14.864-.955 22.399-.716z"/><path fill="#a9b0c8" d="m135 176 .184 2.082.254 2.73c.08.894.162 1.787.246 2.708.25 2.607.25 2.607 1.316 5.48-.037 2.748-.14 5.448-.312 8.188l-.108 2.212c-.302 5.084-1.218 9.692-2.58 14.6h-2l1 6 4-1c-2.304 2.518-4.703 4.145-7.648 5.855l-2.781 1.626-2.946 1.707-5.973 3.503-7.94 4.648a737 737 0 0 0-5.525 3.286l-3.019 1.79c-2.452 1.471-2.452 1.471-3.168 4.585h2v7l-6-1 2-1-1-3a101 101 0 0 1-.205-5.114l-.06-3.154-.051-3.4-.063-3.485a6064 6064 0 0 1-.183-11.035l-.131-7.474Q94.145 205.169 94 196h4c1.884-.734 1.884-.734 3.73-1.836l2.16-1.213 2.297-1.326 2.38-1.345a813 813 0 0 0 19.125-11.23C132.785 176 132.785 176 135 176"/><path fill="#c4c5d5" d="M213.315 130.66c1.98 1.574 2.753 3.01 3.685 5.34l7-1c-.688 2.438-.688 2.438-2 5-2.625.813-2.625.813-5 1l1 2.313c1 2.687 1 2.687 1 5.687l3 1c-1.653 1.819-2.829 2.93-5.125 3.875-2.165 1.009-2.165 1.009-2.625 3.75L214 160h2q.04 2.438.062 4.875l.036 2.742C216 170 216 170 215 172l3 1-2.168 1.298q-4.038 2.416-8.074 4.836l-5.168 3.095a1391 1391 0 0 0-6.588 3.973 173 173 0 0 1-5.582 3.215c-4.153 2.225-4.153 2.225-6.201 6.259l.281 2.637.219 2.675L185 203h-5v-2h2c-.737-28.01-.737-28.01-2-56l3-1 1 2 2.415-1.5q4.44-2.742 8.9-5.446a500 500 0 0 0 3.848-2.369 485 485 0 0 1 5.54-3.38l3.364-2.063C211 130 211 130 213.315 130.66"/><path fill="#3d72f3" d="M292 74c17.697-3.068 17.697-3.068 25.594 2.213 9.69 7.2 22.022 17.741 24.047 30.19.24 5.066-.421 9.686-1.641 14.597h-17v-8h-31z"/><path fill="#1031b1" d="M136 268c10.39-.123 20.64.166 31 1-1 2-1 2-3.5 3.188-4.363 1.012-8.132.722-12.5-.188l-1-1-1 3 2 2-2 3c-.28 2.642-.28 2.642-.187 5.5l.019 2.906c.065 2.709.065 2.709 1.168 5.594l-1 1a236 236 0 0 0-1 7h2l1 4-2 1c-.468 2.356-.468 2.356-.625 5.063l-.227 2.785L148 316l3.98.184 5.208.253 2.619.12c4.152.206 8.138.444 12.193 1.443-2.521 2.521-3.512 2.294-7.008 2.414l-2.988.117-3.129.094-3.152.117q-3.86.142-7.723.258v3l2 1-.5 2.438c-.402 2.866-.552 5.41-.531 8.285l.013 2.433L149 340c-46.329 3.809-46.329 3.809-56.93-4.64-5.246-4.63-9.64-10.272-13.07-16.36v-1h57l1-2h8v-43h-10v-3l2.371.035c1.012.01 2.024.018 3.066.027l3.06.036c2.443.188 2.443.188 3.503-1.098h-11z"/><path fill="#a6afc9" d="m30.195 207.902 2.144.005c2.262.005 4.524.018 6.786.03q2.299.008 4.598.014 5.638.017 11.277.049c1.676 11.243 2.593 25.025-1 36-2.416 1.859-3.92 3-7 3v2l-1.772.076q-3.99.176-7.978.362l-2.79.119-2.694.127-2.476.11c-2.603.174-2.603.174-6.29 1.206l-1 9h-1v-51c2.958-1.48 5.955-1.122 9.195-1.098"/><path fill="#b7bbcf" d="m167 156 2 1-1 43 4-1c-2.573 2.925-5.52 4.557-8.91 6.434l-3.498 1.966q-2.745 1.535-5.498 3.054a709 709 0 0 0-5.317 2.98l-3.21 1.783c-2.587 1.797-3.518 2.865-4.567 5.783h2v7h-6v-2h2l-1-56 3-1 1 2 2.263-1.393a2227 2227 0 0 1 8.308-5.07q1.802-1.097 3.597-2.204a908 908 0 0 1 5.168-3.15l3.142-1.92z"/><path fill="#a7b0c9" d="M58 202h3v3h24v4l1.875.688c2.788 1.722 3.287 3.19 4.125 6.312-1 3-1 3-3 4.375-2.522 2.05-2.659 3.467-3 6.625l2 1-1 9-5 2-1 8 3 1-21 1 1 6h-6l1-48H23l-1-4h2v3l33-1z"/><path fill="#2f60e7" d="M147 124h62c-5.6 5.6-5.6 5.6-9.062 7.375a308 308 0 0 0-10.688 5.938l-3.074 1.785a212 212 0 0 0-6.446 4.023c-6.763 4.372-12.793 7.352-20.73 8.879v2l-12 6z"/><path fill="#3466e7" d="M340 172v47l-17.312.125-5.455.055-4.284.015-2.243.031c-3.789.002-5.472-.07-8.706-2.226 1.827-2.463 3.23-3.834 6.27-4.488 2.245-.237 4.475-.416 6.73-.512l-.187-3.187c.195-3.971.89-5.655 3.187-8.813l-7-1v-1h9l-.08-2.064a719 719 0 0 1-.233-9.249l-.126-3.248-.05-3.115c-.025-.948-.052-1.896-.079-2.872L320 175c5-3 5-3 20-3"/><path fill="#609feb" d="m228 171 1 2h-2l2 5-3 1c-1.209 2-1.209 2-2 4h-4l-3 1v6c-2-3-2-3-3-6l-3.875.313-2.18.175c-2.34.386-2.34.386-3.945 3.512.303 2.337.639 4.67 1 7-.358 2.682-.795 4.59-2 7h-2l-.75 2.375c-1.404 2.948-2.257 3.527-5.25 4.625v4c-2.243 3.017-5.514 4.596-8.734 6.434l-3.43 1.966q-1.792 1.02-3.586 2.037l-3.54 2.026q-3.372 1.93-6.751 3.849a619 619 0 0 0-7.162 4.16C159 235 159 235 157 235v-3l-2-1 2-19c7-3 7-3 9.688-4.062 2.168-.88 4.236-1.861 6.312-2.938v2l5-1v-2h7v-8h1v7c1.959-.113 1.959-.113 4-1 1.297-2.49 1.297-2.49 2-5h2l-.098-1.758c.057-3.784.167-6.31 2.922-9.07 2.331-1.567 4.67-2.905 7.176-4.172l2.012-1.066c2.632-1.274 4.493-1.997 7.426-1.621L215 180l1-4h3v-4z"/><path fill="#d3c5c7" d="m299.625 119.938 2.43.013q2.972.02 5.945.049l1 3-6 3-1 37h-31l2 3c.125 2.688.125 2.688 0 5l-6-1 2-1v-8h2l-.08-1.697a486 486 0 0 1-.233-7.615l-.126-2.67c-.047-2.433-.032-4.63.439-7.018 2.914-2.638 4.398-2.966 8.313-3.187L282 139v-4l-3-1 2-5h-10v-1h13l1 9 3-1 1 2h-2v2h3l-1-19c3.31-1.655 6.991-1.1 10.625-1.062"/><path fill="#091f7e" d="m243 223-6.562 1.75c-.674.18-1.348.36-2.042.547-3.445.921-6.891 1.834-10.345 2.719-6.727 1.742-13.204 3.705-19.696 6.18-3.072 1.05-6.143 1.38-9.355 1.804-2.045.678-4.035 1.451-6.04 2.242-5.404 2.089-10.933 3.174-16.628 4.098-2.642.748-4.248 1.901-6.332 3.66v-3l-3.312 1.5C159 246 159 246 156 246l-1 1-3.5 1.688c-3.095 1.715-3.395 1.948-4.437 5.562L147 257h2c.195 6.055.195 6.055 0 8l-2 2v-4h-2l-1 4-15 1v2l-13 2-2-3 1.877-1.098a6773 6773 0 0 0 8.56-5.027l2.952-1.727c6.003-3.533 11.865-7.21 17.611-11.148q-3.69 2.153-7.375 4.313l-2.29 1.34a539 539 0 0 0-12.296 7.425l-2.428 1.51a648 648 0 0 0-4.632 2.92C111.657 270.2 108.208 272 103 272l-1-3 2.813-1.812c3.011-1.9 3.011-1.9 4.507-3.594 2.344-2.224 4.963-3.663 7.754-5.29l1.81-1.058q2.898-1.69 5.804-3.371l3.966-2.308c3.777-2.197 7.56-4.383 11.346-6.567l2.898-1.675q3.39-1.954 6.79-3.887l1.918-1.1C155.762 236 155.762 236 158 236v2c-2.5 1.625-2.5 1.625-5 3l2.75-.937c2.416-.79 4.778-1.492 7.25-2.063l-2 3 2.375-1c3.933-1.085 7.168-1.096 11.21-1.004 2.887.005 5.595-.402 8.415-.996v-4c3-1 3-1 6.688-.875 4.654.086 8.028-1.382 12.312-3.125h5l1-2h7v-2l3.875-.375c3.473-.315 3.473-.315 6.125-2.625 3.383-.615 6.561-1 10-1l1.938-.625c2.658-.483 3.744.357 6.062 1.625"/><path fill="#4f6fd3" d="m265 25 1 2h-23v89h-17v-2h16l-1-39c-7.764.11-15.528.22-23.292.339q-5.424.084-10.847.158-5.223.072-10.445.156-2.964.044-5.928.081l-3.64.06-3.21.048c-2.746.05-2.746.05-5.638 1.158-2.45.099-4.864.139-7.312.125l-3.926.008c-6.263-.175-12.513-.687-18.762-1.133v29h-2l-1-29-11.422.219c-27.53.515-55.042.9-82.578.781v47h17v1H51v42h-1v-42H19v-1h31V79c-2.35-1.175-3.95-1.2-6.57-1.316l-2.715-.127-2.84-.12-2.863-.13Q31.506 77.147 28 77v-1c27.726-.764 55.454-1.205 83.188-1.562l2.606-.034Q129.896 74.197 146 74v-9c2 2 2 2 2.125 5.125L148 73l2.082-.473 2.73-.59 2.708-.597C158 71 158 71 161 72c2.6.12 5.175.185 7.776.205l2.396.03q3.92.047 7.84.081l5.435.063q7.154.082 14.308.153c5.721.06 11.443.126 17.165.19 8.693.099 17.387.187 26.08.278V27l-16.21.254-10.282.15q-8.127.115-16.252.244-6.565.105-13.13.195-2.481.035-4.963.078c-11.435.193-22.752-.146-34.163-.921v-1q17.969-.258 35.938-.5l2.665-.036c26.466-.356 52.927-.63 79.397-.464"/><path fill="#6b84bf" d="M291 116h28l2 5h-7v47h-2v2h5v1l-3 .184q-2 .125-4 .254l-2.075.132c-3.62.241-7.207.548-10.8 1.055L294 173l-1-1v-6h-21l-1-3h31l-.176-7.988q-.057-3.828-.099-7.655-.038-2.662-.102-5.323c-.06-2.55-.09-5.097-.111-7.647l-.078-2.406c-.002-2.244-.002-2.244.566-5.981 2.425-2.04 3.816-3 7-3l-1-2-17-1z"/><path fill="#6c82b4" d="M181 149c.838 11.872 1.129 23.664 1.063 35.563q-.008 2.412-.014 4.826-.017 5.805-.049 11.611h-2v2l4-1 1 2-3.402.113c-8.024.33-15.095.75-22.598 3.887 2.191-2.357 4.44-4.02 7.188-5.687l2.167-1.325L170 200h-2q-.147-9.074-.22-18.152-.03-3.087-.082-6.175a851 851 0 0 1-.089-8.876l-.062-2.788c-.002-6.405-.002-6.405 2.362-9.542C177.703 149 177.703 149 181 149"/><path fill="#788bb5" d="M224 120c1.21 2.421 1.102 3.899 1.066 6.602l-.03 2.892-.044 3.131-.05 6.516a2336 2336 0 0 1-.113 10.31c-.043 3.308-.066 6.616-.087 9.924l-.056 3.131-.01 2.892-.03 2.553L225 170l3 2h-9v4l-3 1-1 3-3.312.063c-6.093.795-11.214 3.806-15.688 7.937-1.102 2.492-1.53 4.476-1.754 7.18L194 197l-2 1c-.658 3.03-.658 3.03-1 6l-5-1v-7h-2c.118-1.748.118-1.748 1-4a58 58 0 0 1 6.117-4.04l1.858-1.111a749 749 0 0 1 5.9-3.474q1.98-1.174 3.957-2.352 3.63-2.16 7.273-4.299A137 137 0 0 0 216 173l-1-3a81 81 0 0 1-.062-4.687l.027-2.45L215 161l-2-1c.063-2.25.063-2.25 1-5 2.23-1.678 4.474-2.76 7-4l-1.437-2.187c-1.505-2.708-2.129-4.775-2.563-7.813l5-1 1-4-7 1-1-5c-1.683-.84-1.683-.84-4-1-3.068 1.35-3.068 1.35-6.297 3.402l-1.799 1.08a707 707 0 0 0-5.654 3.456l-3.848 2.326A1463 1463 0 0 0 184 147l-1-4 2.324-1.293c8.665-4.881 17.136-10.035 25.565-15.313l2.619-1.636 2.332-1.465C221.34 120 221.34 120 224 120"/><path fill="#6a82b0" d="M95 199v49l3 1h-2v2l3 1v2l-3.762.148-4.925.227c-.817.03-1.634.062-2.475.094-4.402.214-7.774.705-11.838 2.531a97 97 0 0 1-7 0v-4h-6l-2-4c1.514-1.514 2.925-1.213 5.035-1.316l2.451-.127 2.576-.12 2.588-.13q3.175-.159 6.35-.307v-8l2.375-.437c2.777-1.278 2.777-1.278 3.402-3.7.491-2.283.904-4.55 1.223-6.863l-3-1c1.161-4.355 2.077-6.646 6-9l-1-7-3-1-1-3H71v-1h14v-2c1.68-1.29 1.68-1.29 3.875-2.625l2.18-1.352C93 199 93 199 95 199"/><path fill="#1c45c3" d="M146 124h1l1 35 8-5h3v-2c2.813-1.562 2.813-1.562 6-3l3 1q-4.936 3.064-9.875 6.125l-2.781 1.727Q151.177 160.434 147 163l-2.646 1.628c-4.396 2.676-8.805 5.17-13.433 7.42-3.334 1.652-6.56 3.493-9.796 5.327l-2.11 1.193c-7.933 4.5-15.714 9.115-23.202 14.33C94 194 94 194 92 194c.642-2.996 1.222-5.49 3-8 2.56-1.387 5.25-2.308 8-3.25l2.234-.812C110.651 180 110.651 180 113 180v-2h-5a91 91 0 0 1 4-4h2c-2.366-1.183-3.777-1.123-6.417-1.12l-2.813-.004-3.095.01h-3.252c-3.56 0-7.12.009-10.68.016l-7.39.005q-9.742.006-19.482.024-9.933.014-19.867.02Q21.502 172.967 2 173v-1q8.78-.468 17.56-.91 2.984-.151 5.968-.31 4.3-.229 8.6-.44c.883-.05 1.766-.098 2.675-.148l2.547-.122 2.214-.114c3.164.057 6.303.596 9.436 1.044v-46h1v46h3v-2c5.227-1.206 9.765-.756 15 0v-2l3.438.5c2.273.356 2.273.356 4.562.5q3.002.49 6 1v2l44-1 1-2c3.063-.625 3.063-.625 6-1v-2h5v-2l5-2z"/><path fill="#d4aa31" d="M243 72h47v43c-14.943 1.15-14.943 1.15-21.707 1.098l-1.986-.003c-2.373-.006-4.746-.02-7.12-.032L243 116zm2 2v40h37V80l1 1a88 88 0 0 0 5-1v-3h-4v-3z"/><path fill="#e9d7d2" d="M244 117h38v3h6l-4-1v-2h6c.563 1.938.563 1.938 1 4l-1 1a57 57 0 0 0-.098 4.035l.01 2.451.026 2.577.013 2.587q.02 3.175.049 6.35h-3v-3l-3 1v-10l-3 1-1 5 2 1v4c-.957.2-.957.2-1.934.402l-2.503.536-2.497.527c-2.043.343-2.043.343-3.066 1.535a67 67 0 0 0-.316 4.254l-.127 2.588-.12 2.72-.13 2.733q-.16 3.353-.307 6.705h-2a7325 7325 0 0 1-.055-16.608q-.008-2.827-.02-5.654c-.013-2.703-.018-5.406-.023-8.11l-.015-2.569c0-2.02.05-4.04.113-6.059l1-1h-26z"/><path fill="#7088b7" d="M17 215c-.6 3.683-1.248 7.345-2 11l3-1v8h2c.19 5.9-.247 11.08-1.562 16.836-.537 2.286-.537 2.286-.438 5.164-5.557-.742-9.806-4.791-13.469-8.77C-1.077 238.588 1.157 226.907 2 218c5.384-2.34 5.384-2.34 9-1v-2c2.49-1.245 3.41-.777 6 0"/><path fill="#758bb6" d="m135 176 .184 2.082.254 2.73c.08.894.162 1.787.246 2.708.25 2.607.25 2.607 1.316 5.48-.037 2.748-.14 5.448-.312 8.188l-.108 2.212c-.302 5.084-1.218 9.692-2.58 14.6h-2l1 6 4-1c-3.678 4.066-7.569 6.224-13 7-2.683-5.365-1.527-13.8-1.625-19.766a296 296 0 0 0-.184-5.947c-.668-16.501-.668-16.501 3.014-20.953 3.202-1.961 5.998-3.334 9.795-3.334"/><path fill="#5293e8" d="M178 204h2c1.097 3.29.8 4.713 0 8l6 1v2l-6 1v5l2 1c-3.788 2.174-7.58 4.338-11.375 6.5l-3.273 1.879-3.125 1.777-2.889 1.65C159 235 159 235 157 235v-3l-2-1 2-19c7-3 7-3 9.688-4.062 2.168-.88 4.236-1.861 6.312-2.938v2l5-1z"/><path fill="#b8bdd9" d="m299.625 119.938 2.43.013q2.972.02 5.945.049l1 3-6 3-1 37c-9 0-9 0-11-1v-40l-2-1c3.31-1.655 6.991-1.1 10.625-1.062"/><path fill="#576f9e" d="M20 204h3v3h35q.036 9.772.055 19.543.008 3.326.02 6.653.017 4.773.023 9.546l.015 3.018v2.79l.007 2.463C58 253 58 253 57 255h5v1c-3.768.283-6.015-.006-9.543-1.48-5.064-1.966-9.888-2.035-15.27-2.02l-2.85-.086c-2.552-.007-4.843.035-7.337.586-2.236 2.343-2.236 2.343-3 5l-2-1c.25-2.875.25-2.875 1-6 2.919-1.974 5.295-2.24 8.766-2.195l2.695.02 2.789.05 2.836.027q3.458.036 6.914.098v-2c4.385-3 4.385-3 7-3l-.035-2.047-.028-2.703-.035-2.672C54 234 54 234 54.496 232.137c.754-3.195.635-6.299.629-9.574l.008-3.934c-.032-3.52-.032-3.52-.703-6.477C54 210 54 210 55 208l-34 1v24l-3 1c-.976-2.928-1.082-4.956-1-8h-2c-.955-2.17-1.144-3.563-.398-5.824.757-1.744 1.574-3.462 2.398-5.176h-6v2l-5 1c1.838-5.107 5.938-6.223 10.566-8.437 2.59-1.324 2.59-1.324 3.274-3.75z"/><path fill="#c7c5d7" d="M320 119h2c1.726 3 2.246 5.136 2.227 8.585v2.73l-.032 2.92-.008 3.009c-.011 3.169-.037 6.337-.062 9.506q-.016 3.225-.027 6.45A4137 4137 0 0 1 324 168h-2l-1 7h-2l.563-2.437L320 170l-1-1a100 100 0 0 1 0-5h3v-2l-6 1 1 1c.04 2 .043 4 0 6h-5v-2h2v-47l6-1z"/><path fill="#9a97ab" d="m274.328 120.121 2.422.147 2.5.17 2.547.158q3.102.195 6.203.404v1h-19v47h-3v2l-18 2v-6l-1.712.016q-3.832.029-7.663.047l-2.695.025-2.578.01-2.38.016C229 167 229 167 227 166v-2c10.34-.606 20.637-1.186 31-1l1-7h2v-2h2v-9l-1-2 2-2q.544-1.99 1-4l1-1c.073-2.53.092-5.033.063-7.562l-.014-2.155q-.02-2.64-.049-5.283c2.907-.853 5.31-1.073 8.328-.879"/><path fill="#0a1249" d="M259.942 212.495c2.587 1.892 3.726 1.75 6.867 1.396l2.763-.29 2.866-.351 2.853-.305c3.447-.38 6.846-.763 10.241-1.479 2.369-.447 4.488-.581 6.894-.564l2.412.01 2.475.025 2.533.014q3.077.02 6.154.049v1l-3.2.364c-26.71 2.966-26.71 2.966-52.892 8.844l-2.638.753-2.232.681c-2.337.41-3.764-.057-6.038-.642a103 103 0 0 0-7 2v-2l-3.625 1.375L224 225l-3.312 1.25C218 227 218 227 215 226v2c-4.75 1.125-4.75 1.125-7 0l-1 3-1.687-.688c-2.417-.574-2.417-.574-4.563 1.063-3.651 2.158-6.544 2.269-10.75 2.625 1.027-3.08 1.58-3.986 4-6 3.232-1.587 6.62-2.768 10-4l2.41-.887c7.222-2.539 13.97-3.247 21.59-3.113l1-2v2h15v-6c12.035-4.513 12.035-4.513 15.942-1.505"/><path fill="#1e3ca9" d="M136 268c10.39-.123 20.64.166 31 1-1 2-1 2-3.5 3.188-4.363 1.012-8.132.722-12.5-.188l-1-1-1 3 2 2-2 3c-.28 2.642-.28 2.642-.187 5.5l.019 2.906c.065 2.709.065 2.709 1.168 5.594l-1 1a236 236 0 0 0-1 7h2l1 4-2 1c-.468 2.356-.468 2.356-.625 5.063l-.227 2.785L148 316l3.98.184 5.208.253 2.619.12c4.152.206 8.138.444 12.193 1.443-2.521 2.521-3.512 2.294-7.008 2.414l-2.988.117-3.129.094-3.152.117q-3.86.142-7.723.258v3l2 1-.5 2.438c-.592 4.22-.585 8.309-.5 12.562h-2v-22c-6.389.562-6.389.562-12.712 1.556-2.996.581-5.851.556-8.901.542l-3.78-.01-3.92-.026-3.978-.013q-4.855-.018-9.709-.049l-1 2v-2H80l-1-2h57l1-2h8v-43h-10v-3l2.371.035c1.012.01 2.024.018 3.066.027l3.06.036c2.443.188 2.443.188 3.503-1.098h-11z"/><path fill="#1b2c87" d="M94 196c-.383 2.377-.725 3.712-2.408 5.473-6.228 4.18-11.76 4.125-19.092 3.84l-3.36-.069q-4.07-.087-8.14-.244v-3l-1.524 1.976c-3.295 2.694-6.022 2.534-10.085 2.415l-2.203-.018a561 561 0 0 1-6.938-.123q-2.358-.03-4.715-.055c-3.845-.044-7.69-.113-11.535-.195v-3l-4 1-.07 2.234c-1.35 4.018-4.238 5.165-7.805 7.016l-1.934 1.063C7.497 215.775 4.913 217.029 2 218c-.562-2.625-.562-2.625 0-6 1.934-1.822 3.935-3.07 6.238-4.395a100 100 0 0 0 5.152-3.195c7.798-4.887 14.473-5.151 23.473-4.855q2.108.032 4.215.054c3.666.045 7.33.123 10.996.212q8.822.214 17.645.325c2.043.033 4.084.092 6.126.153C82.834 200.41 88.54 196 94 196"/><path fill="#365fcf" d="M145 2h3l.113 3.578q.099 2.336.2 4.672l.068 2.355c.204 4.341.393 7.177 3.619 10.395l1 1c2.208.124 4.42.178 6.631.205l2.099.03q3.45.046 6.899.081l4.771.063q6.291.083 12.582.153 6.414.077 12.829.161 12.594.162 25.189.307v1l-59 1v1h-18v32l-2-1V28H76l1-3a2641.599 2641.599 0 0 0 14.844.11q2.526.016 5.052.04c2.417.025 4.835.036 7.252.045l2.29.032c1.855 0 3.71-.105 5.562-.227l2-2v2h31z"/><path fill="#768cb6" d="M55 208c1.78 11.155 2.566 25.107-1 36-2.416 1.859-3.92 3-7 3l-1 2-4-1 2-36c9-4 9-4 11-4"/><path fill="#030525" d="M35 272h38c-3.322 6.644-3.322 6.644-7.25 8.313-5.447 2.71-8.39 6.728-11.75 11.687-3.259-1.426-5.402-3.167-7.89-5.695l-2.15-2.168-2.21-2.262-2.258-2.285A1634 1634 0 0 1 34 274z"/><path fill="#95a5c6" d="M211 130c3.367 1.52 4.608 2.521 6 6l7-1c-.687 2.438-.687 2.438-2 5-2.625.813-2.625.813-5 1l1 2.313c1 2.687 1 2.687 1 5.687l3 1c-1.653 1.819-2.829 2.93-5.125 3.875-2.165 1.009-2.165 1.009-2.625 3.75L214 160h2q.039 2.438.063 4.875l.035 2.742C216 170 216 170 215 172l3 1-2.168 1.298q-4.038 2.417-8.074 4.836l-5.168 3.095Q197.79 185.108 193 188l-2.527 1.499c-3.248 1.958-5.34 3.301-7.473 6.501-.375-2.25-.375-2.25 0-5l3-1.812c3.159-1.784 3.159-1.784 3.398-4.215.007-2.482.007-2.482-.398-5.973l7 1 1-2v2l7-1v-7h8l-.494-1.964c-.647-3.882-.63-7.696-.604-11.618l.005-2.467c.005-2.588.018-5.176.03-7.763q.008-2.64.014-5.28.017-6.454.049-12.908"/><path fill="#3063bf" d="M310 121h4v47h-2v2h5v1l-3 .184q-2 .125-4 .254l-2.075.132c-3.62.241-7.207.548-10.8 1.055L294 173l-1-1v-6h-21l-1-3 38-1c1.345-3.86 1.345-3.86 0-7-.022-2.018-.022-2.018.121-4.316l.147-2.569.17-2.678q.158-2.595.308-5.19l.152-2.607c.136-3.514.05-7.013-.074-10.526C310 125 310 125 312 122z"/><path fill="#020218" d="m265.715 199.902 3.67.005c3.85.005 7.701.018 11.553.03q3.926.008 7.853.014 9.605.017 19.209.049l-1 12-3.75-1c-5.748-1.302-11.387-1.179-17.25-1l-1-4-6-1v-2l-3.812 1.063c-5.415 1.098-10.58.966-16.063.687l-2.523-.117c-4.087-.252-6.975-.609-10.602-2.633v-1c6.57-1.2 13.05-1.127 19.715-1.098"/><path fill="#554d75" d="M286.445 114.931q5.875.014 11.75.02 11.402.016 22.805.049l-2 4v-3h-28l-1 4v-3h-6v2l4-1v2h-6v-3h-38v4h-17v-3c-6.866 3.723-13.536 7.721-20.188 11.812-7.735 4.744-15.506 9.368-23.46 13.735-2.463 1.237-2.463 1.237-3.352 3.453l-5-1a97.6 97.6 0 0 1 20-13c4.263-2.477 8.47-5.048 12.656-7.652 4.359-2.685 8.342-5.032 13.344-6.348v-2c5.237-1.505 10.603-1.377 16.016-1.559l3.722-.128c15.233-.472 30.468-.427 45.707-.382"/><path fill="#15267e" d="M311 212c-2.585 1.982-5.04 3.626-8 5l2 2-2.064.044c-3.083.075-6.166.171-9.248.268l-3.249.069-3.115.107-2.872.08c-2.866.505-3.532 1.352-5.452 3.432-3.187.188-3.187.188-6 0v-1a590 590 0 0 0-6.25-.125l-3.516-.07c-3.114.188-4.622.61-7.234 2.195l-2.437.938c-3.999 1.649-3.999 1.649-7.563 4.062-.896 3.6-.896 3.6-1 7-2-3-2-3-2-6l-2-1 1-3-2-2c13.574-6.162 28.256-8.396 42.938-10.312l3.91-.52A161.6 161.6 0 0 1 311 212"/><path fill="#85b0e8" d="m264 173 3 1-.254 1.941c-.62 5.26-.774 9.815.254 15.059l.563 2.938L268 196c1.457.081 2.916.14 4.375.188l2.46.105L277 196l2-3h2v-2c3 1 3 1 4 3l1.672-1.488c2.792-1.813 4.29-1.83 7.578-1.7l2.703.083L299 191v7a63 63 0 0 1-12.097 1.114h-3.578l-3.817-.016-3.943-.005q-5.163-.006-10.327-.024-5.28-.014-10.558-.02-10.34-.016-20.68-.049l1-5 6 1v2l14-1v-2c2.955-2.744 3.775-3 8-3l1-5h-1a888 888 0 0 1-.062-5.375l-.036-3.023C263 175 263 175 264 173"/><path fill="#dad7e0" d="M225 118h2v3h16v1h-16c.609 3.043 1.224 6.006 2 9 1.46-.087 2.918-.195 4.375-.312l2.46-.176c2.544-.342 2.544-.342 4.165-3.512v25l-2-3c-1.905-.438-1.905-.438-4-.312l-2.125.011c-2.117.152-2.117.152-3.875 2.301-.463 2.662-.463 2.662-.625 5.625l-.227 3.04L227 162h-2q-.25-9.157-.482-18.317-.08-3.117-.166-6.236-.122-4.47-.23-8.943l-.083-2.835-.06-2.608-.061-2.308C224 119 224 119 225 118"/><path fill="#bdbfd4" d="M211 131v21c-7 2-7 2-9 2l-1-5-1.812 1C197 151 197 151 194 151l-1-3-3.312 1C186 150 186 150 183 150l-1 16h-1l-1-21 3-1 1 2 2.263-1.377q4.151-2.52 8.308-5.032 1.8-1.089 3.597-2.182c1.72-1.047 3.444-2.087 5.168-3.128l3.142-1.904C209 131 209 131 211 131"/><path fill="#7c8eba" d="M224 120c1.21 2.421 1.102 3.899 1.066 6.602l-.03 2.892-.044 3.131-.05 6.516a2336 2336 0 0 1-.113 10.31c-.043 3.308-.066 6.616-.087 9.924l-.056 3.131-.01 2.892-.03 2.553L225 170l3 2h-9v-8h5v-29l-6 2-3-1v-4c-1.683-.84-1.683-.84-4-1-3.068 1.35-3.068 1.35-6.297 3.402l-1.799 1.08a707 707 0 0 0-5.654 3.456l-3.848 2.326A1463 1463 0 0 0 184 147l-1-4 2.324-1.293c8.665-4.881 17.136-10.035 25.565-15.313l2.619-1.636 2.332-1.465C221.34 120 221.34 120 224 120"/><path fill="#ead1c3" d="M244 123h18v2l-3 1-2 19-5 2c-2.556 1.169-3.99 1.99-6 4v-4h-2z"/><path fill="#2d5bd9" d="M52 52v23h19v1H28v-2c1.223-1.2 1.223-1.2 3.063-2.687 5.285-4.465 10.076-9.4 14.92-14.333l1.92-1.945 1.733-1.77C51 52 51 52 52 52"/><path fill="#0d1b66" d="m243 223-6.562 1.75c-.674.18-1.348.36-2.042.547-3.445.921-6.891 1.834-10.345 2.719-6.727 1.742-13.204 3.705-19.696 6.18-3.072 1.05-6.143 1.38-9.355 1.804-2.045.678-4.035 1.451-6.04 2.242-5.404 2.089-10.933 3.174-16.628 4.098-2.642.748-4.248 1.901-6.332 3.66v-3l-3.312 1.5C159 246 159 246 156 246v-2l-3.687 1c-3.185.803-6.01 1.206-9.313 1 1.488-4.075 3.732-5.287 7.5-7.25l2.969-1.578C156 236 156 236 158 236v2c-2.5 1.625-2.5 1.625-5 3l2.75-.937c2.416-.79 4.778-1.492 7.25-2.063l-2 3 2.375-1c3.933-1.085 7.168-1.096 11.21-1.004 2.887.005 5.595-.402 8.415-.996v-4c3-1 3-1 6.688-.875 4.654.086 8.028-1.382 12.312-3.125h5l1-2h7v-2l3.875-.375c3.473-.315 3.473-.315 6.125-2.625 3.383-.615 6.561-1 10-1l1.938-.625c2.658-.483 3.744.357 6.062 1.625"/><path fill="#2157c2" d="m34.25 251.678 2.875.01 2.805-.05c6.058-.004 10.532.893 16.07 3.362v1l-3.14.367-4.11.508-2.066.238c-5.153.59-5.153.59-9.684 2.887-.819 3.562-.819 3.562-1 7l2 1-1 2 17 1v1c-19.606 1.315-19.606 1.315-25.242-1.781-1.907-1.984-3.42-3.82-4.758-6.219l1-3h-3v-3h2l.375-1.875c1.545-5.254 5.24-4.411 9.875-4.447"/><path fill="#8296bc" d="M61 205h24v4l1.875.688c2.788 1.722 3.287 3.19 4.125 6.312-1 3-1 3-3 4.375-2.522 2.05-2.659 3.467-3 6.625l2 1-1 9-5 2-1 8 3 1h-4l-1-14h2l-1-25-18-1z"/><path fill="#c8b4af" d="m255.438 120.875 3.105-.014 2.89.006 2.596.004C266 121 266 121 267 122a135 135 0 0 1 .188 6.813l.042 3.769c-.215 3.194-.57 4.764-2.23 7.418l-1.125 2.25L263 144l2 2c-.242 1.945-.242 1.945-.875 4.125l-.617 2.195L263 154h-2v2h-2l-1 2v-32l4-1v-2h-35v-1c9.486-.771 18.92-1.107 28.438-1.125"/><path fill="#5a72a5" d="M136 174h3v52h-2v2h5v1l-3.36.148-4.39.227c-.73.03-1.46.062-2.21.094-3.869.21-6.666.661-10.04 2.531h-4v2l-4-1 22-13h-3l-1-6h2q.506-4.281 1-8.562c.095-.8.19-1.6.29-2.424.747-6.547 1.225-12.683-.415-19.139-.862-3.926-1.025-6.292 1.125-9.875"/><path fill="#debc63" d="M243 72h47v42h-2V77h-4v-3h-39v40h23v1l-25 1z"/><path fill="#254cc0" d="M51 77h1v46h10v-2l3.125.125c3.782-.122 6.34-.896 9.875-2.125 2.875-.125 2.875-.125 5 0v1l2.152-.035 2.785-.028 2.778-.035C90 120 90 120 91 121c3.074.125 6.126.186 9.201.205l2.927.03q4.813.047 9.626.081l6.654.063q8.777.082 17.553.153 8.949.077 17.896.161 17.572.162 35.143.307v1l-3.365.025q-15.672.116-31.344.263-8.057.076-16.115.134-7.77.056-15.542.136-2.97.028-5.94.045c-2.766.017-5.531.046-8.297.078l-2.5.007c-4.418-.111-4.418-.111-7.897 2.312-3.625.125-3.625.125-7 0v-1l-41-1z"/><path fill="#d5c6c7" d="M243 123h1v24h2l1 2 1.715-1.094 2.222-1.406 2.215-1.406C255 144 255 144 256 144l1-6h1v25h-14c-.803-4.82-1.133-9.188-1.098-14.023l.005-2.262c.005-2.363.018-4.727.03-7.09q.008-2.415.014-4.832.017-5.897.049-11.793"/><path fill="#2047c6" d="M244 269h1v48h19c-6.762 7.889-6.762 7.889-9.395 10.527l-1.705 1.71-1.713 1.7-1.771 1.784C245.126 337 245.126 337 244 337z"/><path fill="#2c56d2" d="M79.314 171.818q3.378-.01 6.757-.026 5.365-.025 10.732-.021c1.973-.001 3.946-.012 5.919-.023l3.577.01 3.13-.005C112 172 112 172 115 174c-4.375 2.692-8.238 2.281-13.184 1.492-4.046-.522-7.99-.601-12.058-.555l-2.327.012c-3.252.016-6.504.044-9.756.072q-3.583.026-7.167.041l-2.18.026c-5.18.024-10.187-.445-15.328-1.088l-2 12h-1l-1-11-21-1-1 3H17v-3c-.748.095-1.495.19-2.266.29-.984.11-1.97.22-2.984.335l-2.953.352c-2.985.025-4.238-.573-6.797-1.977 25.769-.79 51.534-1.13 77.314-1.182"/><path fill="#040c42" d="M182 222v2l-1.375 1.313c-2.644 2.745-3.438 6.126-4.625 9.687l2 1 1 1q1.99.544 4 1c-3.946 1.706-7.203 2.093-11.437 2-4.65-.102-8.195.447-12.563 2l1-3-2.312 1.563L155 242l-3-1c3.75-3 3.75-3 6-3l.211-1.812c1.096-3.04 2.616-3.642 5.41-5.204l2.834-1.601 2.982-1.633 2.971-1.68C179.692 222 179.692 222 182 222"/><path fill="#4e8ce2" d="m47.313 256.813 3.238.082L53 257c.59 1.828.59 1.828 1 4-1.437 2.75-1.437 2.75-3 5h3l-1 5H36v-4l-.312-3.562L36 260c3.735-2.993 6.613-3.342 11.313-3.187"/><path fill="#09144e" d="M295.399 197.975q3.611-.033 7.223-.051l2.188-.023c4.815-.014 9.423.42 14.19 1.099l-1.438 2.563c-1.62 3.563-2.175 6.563-2.562 10.437h-8a560 560 0 0 1-.063-4.312l-.035-2.426C307 203 307 203 308 200h-89v-1q14.007-.198 28.013-.391 6.506-.09 13.013-.182a25732 25732 0 0 1 17.366-.242c6.002-.086 12.005-.147 18.007-.21"/><path fill="#1c48ae" d="m94 244 .313 1.938L95 248l3 1h-2v2l3 1v2l-3.762.148-4.925.227c-.817.03-1.634.062-2.475.094-4.402.214-7.774.705-11.838 2.531a97 97 0 0 1-7 0v-4h-6l-2-4 2.383-.028c3.581-.054 7.161-.138 10.742-.222l3.75-.043c8.863-.176 8.863-.176 16.125-4.707"/><path fill="#5472d0" d="M291 73h22v1h-21v39h31v8h17v2h-15v45h-1l-.031-1.681q-.163-8.663-.341-17.325-.065-3.233-.125-6.466-.088-4.647-.187-9.294l-.05-2.92-.06-2.729-.048-2.396c-.157-2.17-.564-4.1-1.158-6.189h-2l1-4h-31z"/><path fill="#060c33" d="M259.942 212.495c2.587 1.892 3.726 1.75 6.867 1.396l2.763-.29 2.866-.351 2.853-.305c3.447-.38 6.846-.763 10.241-1.479 2.369-.447 4.488-.581 6.894-.564l2.412.01 2.475.025 2.533.014q3.077.02 6.154.049v1l-3.406.411c-4.218.512-8.435 1.035-12.652 1.56q-2.724.338-5.45.666c-8.961 1.083-17.665 2.146-26.33 4.776-2.983.81-5.772.883-8.85.774l-3.074-.082L244 220v-6c12.035-4.513 12.035-4.513 15.942-1.505"/><path fill="#5379de" d="m265 25 1 2h-23v46h-1V27l-16.21.254-10.282.15q-8.127.115-16.252.244-6.565.105-13.13.195-2.481.035-4.963.078c-11.435.193-22.752-.146-34.163-.921v-1q17.969-.258 35.938-.5l2.665-.036c26.466-.356 52.927-.63 79.397-.464"/><path fill="#78aff1" d="M315 162h7v2h-3v5l2 1-.494 2.155c-.509 2.86-.62 5.462-.604 8.365l.01 3.095.026 3.197.013 3.256q.018 3.966.049 7.932h-8q-.08-4.094-.125-8.187l-.05-2.33c-.038-4.298.18-7.562 2.175-11.483h1c1.093-4.51 2.14-9.72 0-14"/><path fill="#8698bd" d="m170 154 2 1v5h-2l1 5 3-1 1-2h3v2h-2v8h2c-.586 6.152-.586 6.152-1 8l-2 1a178 178 0 0 0-2 4c-1.5 2.25-1.5 2.25-3 4h-2q-.075-6.754-.11-13.507a970 970 0 0 0-.04-4.595 942 942 0 0 1-.045-6.605l-.032-2.074c0-3.65.141-5.09 2.227-8.219"/><path fill="#5c5b94" d="m127 177-2.076 1.206q-4.713 2.74-9.424 5.482l-3.266 1.896c-6.777 3.946-6.777 3.946-13.453 8.06l-1.775 1.093c-1.3.819-2.58 1.674-3.829 2.57-6.984 4.58-13.724 4.342-21.837 4.181q-2.1-.014-4.199-.021c-3.655-.02-7.309-.068-10.963-.124-3.741-.051-7.482-.074-11.223-.099-7.319-.053-14.637-.138-21.955-.244v-1l2.242-.036q10.526-.173 21.048-.435c3.606-.09 7.212-.168 10.818-.222 3.49-.052 6.977-.134 10.465-.233 1.96-.05 3.92-.07 5.88-.09C82.064 198.706 87.838 196.76 95 192l3.094-1.906 2.406-1.594c21.62-13.94 21.62-13.94 26.5-11.5"/><path fill="#19398a" d="m268 163-2 8-18 2v-6l-1.712.016q-3.832.029-7.663.047l-2.695.025-2.578.01-2.38.016C229 167 229 167 227 166v-2q6.83-.216 13.66-.427l4.637-.146q3.352-.105 6.703-.208l2.062-.067c4.649-.14 9.288-.17 13.938-.152"/><path fill="#64749f" d="M179 156c3.549 3.549 3.038 9.283 3.114 14.121q0 2.159-.016 4.316l-.005 2.32c-.005 2.415-.018 4.829-.03 7.243q-.008 2.475-.014 4.95-.017 6.024-.049 12.05h-2v2l4-1 1 2-3.402.113c-8.024.33-15.095.75-22.598 3.887 2.192-2.487 3.838-3.44 7.012-4.32 5.32-1.906 9.8-3.826 12.988-8.68 2.49-11.152 1.719-24.783-.606-35.897L178 157z"/><path fill="#ece8ee" d="M320 119h2c1.726 3 2.246 5.136 2.227 8.585v2.73l-.032 2.92-.008 3.009c-.011 3.169-.037 6.337-.062 9.506q-.016 3.225-.027 6.45A4137 4137 0 0 1 324 168h-2l-1 7h-2l.563-2.437L320 170l-1-1a100 100 0 0 1 0-5h3v-2h-2q-.25-8.703-.482-17.407-.08-2.963-.166-5.925-.122-4.253-.23-8.504l-.083-2.686c-.153-6.25-.153-6.25.961-8.478"/><path fill="#536fd2" d="M243 256h1v12h69v1h-69v69h-1v-69h-52v-1h52z"/><path fill="#152f9b" d="M136 268c10.39-.123 20.64.166 31 1-1 2-1 2-3.5 3.188-4.363 1.012-8.132.722-12.5-.188l-1-1-1 3 2 2-2 3c-.28 2.642-.28 2.642-.187 5.5l.019 2.906c.065 2.709.065 2.709 1.168 5.594l-2 2c-.37 2.325-.37 2.325-.414 5.008l-.117 2.988-.094 3.129-.117 3.152q-.142 3.86-.258 7.723h-1c-1.062-14.672-1.111-29.295-1-44h-10v-3l2.371.035c1.012.01 2.024.018 3.066.027l3.06.036c2.443.188 2.443.188 3.503-1.098h-11z"/><path fill="#b3b7d0" d="m167 156 2 1c.37 3.938.303 7.241-1 11-3.622 3.156-7.506 5.31-12 7l-2-1v-4c-2.902-.224-2.902-.224-4.875.938-2.361 1.18-4.532 1.63-7.125 2.062 1.24-3.72 2.23-3.987 5.586-5.848l2.82-1.584 2.969-1.63 5.773-3.223 2.6-1.434c1.794-1.02 3.534-2.136 5.252-3.281"/><path fill="#efd181" d="M244 117h38v3h6l-4-1v-2h6c.563 1.938.563 1.938 1 4l-1 1a59 59 0 0 0-.062 4.063L290 130l-1-2-2-1 1-6h-44z"/><path fill="#a0a9c8" d="m121 183 3 1v31h-1q-.291-4.155-.562-8.312l-.17-2.381-.147-2.295-.143-2.11C122 198 122 198 123 195l-10 5v-4h2v-3c4.222-3 4.222-3 7-3v-3c-1.65.59-3.296 1.198-4.937 1.813l-2.778 1.019c-2.619 1.002-2.619 1.002-3.285 4.168-1.437 1.688-1.437 1.688-3 3h-2v2c-6.75 1.125-6.75 1.125-9 0 1.173-3.52 1.72-3.693 4.86-5.375l2.382-1.297L106.75 191l4.86-2.625 2.318-1.234c1.696-.934 3.339-1.963 4.963-3.016z"/><path fill="#6fa9f0" d="M306 171h10v6l-2 1c-1.197 3.59-1.07 6.833-1 10.563.135 7.167.135 7.167-1 9.437h-12c4-3 4-3 6-3 1.257-2.906 2-4.796 2-8l-3-2c.72-4.609 2.313-8.672 4-13z"/><path fill="#5871af" d="M310 121h4v47h-2l-1 2v-7l-2-1 .563-1.812c.658-2.352.658-2.352-.563-5.188-.022-2.018-.022-2.018.121-4.316l.147-2.569.17-2.678q.158-2.595.308-5.19l.152-2.607c.136-3.514.05-7.013-.074-10.526C310 125 310 125 312 122z"/><path fill="#bfb6ba" d="m95 199 2 1 1 7 2 1c0 20.538 0 20.538-.437 26.125l-.247 3.258C99 240 99 240 98 241a236 236 0 0 0-1 7h-2z"/><path fill="#4b8ae3" d="m218 172 1 4-3 1-1 3-3.312.063c-6.093.795-11.214 3.806-15.688 7.937-1.102 2.492-1.53 4.476-1.754 7.18L194 197l-2 1c-.658 3.03-.658 3.03-1 6l-5-1v-7h-2c.122-1.75.122-1.75 1-4 2.604-1.967 2.604-1.967 6.047-4.004l1.843-1.105a744 744 0 0 1 5.86-3.453q1.954-1.162 3.906-2.327 3.604-2.147 7.222-4.273A937 937 0 0 0 218 172"/><path fill="#4c72df" d="M28 76h23v48h17v1H51v42h-1v-42H19v-1h31V79c-2.35-1.175-3.95-1.2-6.57-1.316l-2.715-.127-2.84-.12-2.863-.13Q31.506 77.147 28 77z"/><path fill="#7185af" d="M89 229c2.588 2.588 2.627 4.42 3 8l-1 2h-2l3 7c-3.348 3.062-5.6 3.359-10.078 3.293l-3.516-.03c-1.206-.024-2.413-.05-3.656-.076l-3.703-.04Q66.523 249.092 62 249v-1l18-1v-8l2.375-.625c2.934-1.182 2.934-1.182 3.938-4.5L87 231h2z"/><path fill="#1e348f" d="M282 220c-1.3 1.488-1.3 1.488-3 3-3.187.188-3.187.188-6 0v-1a590 590 0 0 0-6.25-.125l-3.516-.07c-3.114.188-4.622.61-7.234 2.195l-2.437.938c-3.999 1.649-3.999 1.649-7.563 4.062-.896 3.6-.896 3.6-1 7-2-3-2-3-2-6l-2-1 1-3-2-2c13.42-6.282 27.512-5.95 42-4"/><path fill="#5d9ce7" d="m228 171 1 2h-2l2 5-3 1c-1.209 2-1.209 2-2 4h-4l-3 1v6c-2-3-2-3-3-6h-12c3.263-2.89 5.593-4.652 10-5l3 1 1-4h3v-4z"/><path fill="#a3aeca" d="M204 172c2.84 0 5.237.403 8 1l1 3-1.709 1.022-7.791 4.666-2.687 1.607a1841 1841 0 0 0-5.286 3.18q-2.443 1.475-4.898 2.93l-2.16 1.302-1.893 1.128c-1.878 1.25-1.878 1.25-3.576 4.165-.375-2.25-.375-2.25 0-5l3-1.812c3.159-1.784 3.159-1.784 3.398-4.215.007-2.482.007-2.482-.398-5.973l7 1 1-2v2l7-1z"/><path fill="#4667d1" d="M215 121c-1.318 1.977-1.318 1.977-4 4-3.635.586-7.246.445-10.919.362l-3.371-.027c-3.68-.036-7.359-.1-11.038-.163q-3.825-.045-7.65-.085c-6.029-.066-12.056-.15-18.084-.244-6.863-.106-13.726-.188-20.59-.268-14.116-.166-28.232-.361-42.348-.575v-1l3.396-.031q15.972-.148 31.945-.308 8.208-.083 16.416-.158 7.946-.074 15.893-.156 3.006-.03 6.012-.056c11.774-.102 23.503-.42 35.259-1.083 3.03-.168 6.042-.255 9.079-.208"/><path fill="#ded8d1" d="M187 79h16v9h-16z"/><path fill="#1a3583" d="M57 246h1c.125 6.75.125 6.75-1 9h5v1c-3.768.283-6.015-.006-9.543-1.48-5.064-1.966-9.888-2.035-15.27-2.02l-2.85-.086c-2.552-.007-4.843.035-7.337.586-2.236 2.343-2.236 2.343-3 5l-2-1c.25-2.875.25-2.875 1-6 3.347-2.407 6.714-2.308 10.734-2.414l3.926-.117 4.09-.094 4.137-.117Q50.943 248.117 56 248z"/><path fill="#1f48c3" d="M187 81v7h9l-1 3q-4.406.118-8.812.188l-2.526.076-2.432.029-2.237.048c-2.563-.438-3.449-1.283-4.993-3.341.063-2.562.063-2.562 1-5 3.422-2.875 7.776-2.14 12-2"/><path fill="#939cbb" d="m123 224 4 2-2.824 1.688c-3.369 2.014-6.73 4.038-10.093 6.063a888 888 0 0 1-5.938 3.522l-3.52 2.102-3.21 1.898c-2.687 1.564-2.687 1.564-3.415 4.727h2v7l-6-1 2-1c1.198-3.007 1.198-3.007.875-6.375.137-3.966.51-5.661 3.125-8.625 3.188-.812 3.188-.812 6-1l2-7h3v2c5.408-1.098 5.408-1.098 9-5l3 1z"/><path fill="#d6cdd3" d="M24 208c.74 10.598 1.14 21.068.625 31.688l-.13 2.77c-.359 6.406-.359 6.406-1.495 7.542a104 104 0 0 0-.562 5.063l-.254 2.785L22 260h-1v-51c2-1 2-1 3-1"/><path fill="#2f49b0" d="M152 268c24.689-.13 49.326.127 74 1v1h-21v2c-2 .043-4 .04-6 0l-1-1a104 104 0 0 0-5.062-.562l-2.786-.254L188 270l-1 3h-3l-1-2c-2.356-.468-2.356-.468-5.062-.625l-2.786-.227L173 270l-1 3c-1.937-.312-1.937-.312-4-1l-1-3h-15z"/><path fill="#bdc1d4" d="m211 155 2 18-6-1-1 4c-1.425-3.99-2.4-7.805-3-12h-2l-1-4h2l1.313-1.375C205.36 156.654 208.049 155 211 155"/><path fill="#365acd" d="M222 123c-2.643 2.978-5.747 4.815-9.137 6.871l-1.813 1.102q-1.898 1.151-3.8 2.297a1443 1443 0 0 0-5.74 3.482c-6.054 3.671-12.1 7.224-18.51 10.248.164-2.309.164-2.309 1-5 2.273-1.598 2.273-1.598 5.375-3.062 7.028-3.503 13.5-7.624 20-12.026 4.339-2.843 7.234-4.682 12.625-3.912"/><path fill="#355cd7" d="M258 269h54l-5 6-1-2c-1.048.095-2.096.19-3.176.29l-4.137.335-2.091.195c-3.852.298-5.285.388-8.596-1.82-3.142.315-3.142.315-6 1l-1-3h-23z"/><path fill="#2145be" d="M24 202h34v3c-1 1-1 1-4.143 1.114q-2.086 0-4.173-.016l-2.216-.005c-2.343-.005-4.687-.018-7.03-.03l-4.756-.014Q29.84 206.032 24 206z"/><path fill="#2344bb" d="M137 172c-1.462 3.768-3.23 5.036-6.734 6.953l-2.912 1.617-3.104 1.68-6.27 3.465-3.092 1.695c-3.8 2.092-7.566 4.239-11.326 6.403l-3.308 1.894L98 197l-1-3c6.352-4.363 12.859-8.329 19.563-12.125.893-.512 1.787-1.024 2.708-1.55C133.898 172 133.898 172 137 172"/><path fill="#3054c8" d="M180 147c-1.318 3.955-3.68 4.883-7.125 6.836l-1.882 1.095c-1.993 1.156-3.993 2.3-5.993 3.444q-1.975 1.143-3.95 2.29c-6.644 3.847-13.317 7.643-20.05 11.335.204-2.307.204-2.307 1-5 2.05-1.65 2.05-1.65 4.742-3.086l2.985-1.633 3.148-1.656q3.03-1.633 6.055-3.273l3.038-1.636c4.022-2.276 7.844-4.815 11.661-7.418C176 147 176 147 180 147"/><path fill="#fcd441" d="M255 75h29v2h4v3l-5 1v-2h-30l2-1z"/><path fill="#264ac1" d="M146 124h1l1 35 8-5h3v-2c2.813-1.562 2.813-1.562 6-3l3 1q-4.936 3.064-9.875 6.125l-2.781 1.727q-4.167 2.58-8.344 5.148l-2.751 1.698-2.632 1.607-2.332 1.429c-6.209 3.44-6.209 3.44-9.597 2.891L128 170l1-2c3.063-.625 3.063-.625 6-1v-2h5v-2l5-2z"/><path fill="#7f94d3" d="M291 116h28l2 5h-11l-1 2-1-2-17-1z"/><path fill="#2546b4" d="M316 208h1v5h2l1 3 20 2v1q-7.394.075-14.789.11-2.516.016-5.031.04c-2.41.025-4.82.036-7.23.045l-2.274.032c-3.779 0-5.45-.076-8.676-2.227 3.168-4.132 6.163-4.695 11.074-5.41L315 211z"/><path fill="#474a8d" d="m22 200 2 1v2l-4 1-.07 2.234c-1.35 4.018-4.238 5.165-7.805 7.016l-1.934 1.063C7.497 215.775 4.913 217.029 2 218c-.562-2.625-.562-2.625 0-6 2.679-2.524 5.802-4.209 9-6l2.977-1.746c5.526-3.157 5.526-3.157 8.023-4.254"/><path fill="#fcd33b" d="M289 87c.03 3.75.047 7.5.063 11.25l.025 3.223.01 3.105.016 2.857c-.104 2.346-.447 4.321-1.114 6.565h-4V88c4-1 4-1 5-1"/><path fill="#325bd8" d="M145 80h1v25h2v16l7-1c12.332-.475 24.69.325 37 1v1h-46c-.648-5.835-1.142-11.286-1.098-17.098l.005-2.18c.005-2.262.018-4.523.03-6.784q.008-2.324.014-4.647.017-5.645.049-11.291"/><path fill="#07145c" d="M158 236v2c-2.5 1.625-2.5 1.625-5 3l2.75-.937c2.416-.79 4.778-1.492 7.25-2.063l-2 3 2.688-1.062c3.374-.956 5.009-.91 8.312.062v2a125 125 0 0 1-6 4v-3l-3.312 1.5C159 246 159 246 156 246v-2l-3.687 1c-3.185.803-6.01 1.206-9.313 1 1.488-4.075 3.732-5.287 7.5-7.25l2.969-1.578C156 236 156 236 158 236"/><path fill="#b3bad9" d="M211 131v11l-2 1 1-6-3 2h-4v2l-2.937.875c-3.17.767-3.17.767-4.063 3.125-4.475 1.262-4.475 1.262-7 0v2l-5 1v-2c2.263-1.604 2.263-1.604 5.398-3.477l3.391-2.03 1.782-1.053c1.794-1.06 3.58-2.131 5.367-3.206C208.728 131 208.728 131 211 131"/><path fill="#8199cd" d="M312 122c-1 3-1 3-4 5l.75 1.938c.377 4.62-1.694 8.006-3.75 12.062-1.2 2.4-1.115 3.894-1.098 6.57l.01 2.715.026 2.84.013 2.863q.018 3.507.049 7.012h-2v-37c8-4 8-4 10-4"/><path fill="#a1aac6" d="m161 197 1 4h2l1-2h7c-2.574 2.906-5.525 4.613-8.875 6.54-.566.325-1.131.652-1.714.988q-1.79 1.029-3.58 2.052-2.74 1.566-5.472 3.147c-8.928 5.13-8.928 5.13-12.359 6.273l1-5 5-1v-6h2v2h2l2-2v2c3.161-1.37 3.993-1.99 6-5l3-1-2-1z"/><path fill="#908996" d="m274.328 120.121 2.422.147 2.5.17 2.547.158q3.102.195 6.203.404v1h-19v47h-3l.508-2.39c.615-4.51.51-8.842.37-13.383l-.07-2.8q-.117-4.401-.245-8.802l-.159-5.988q-.193-7.32-.404-14.637c2.934-.783 5.29-1.074 8.328-.879"/><path fill="#52658e" d="M94 200h1q.112 9.344.165 18.689.022 3.18.061 6.361c.037 3.044.054 6.086.067 9.13.015.952.03 1.904.047 2.885v2.669l.02 2.355L95 244l-3 2c-3-3.625-3-3.625-3-7h2c1.05-4.484 1.356-8.919 1.625-13.5l.156-2.262c.187-3.11.306-5.808-.316-8.875-.61-3.102-.106-5.58.472-8.675l.59-3.239z"/><path fill="#c0c3d2" d="M242 148h1l.148 3.246.227 4.191c.03.708.062 1.415.094 2.143.104 1.812.31 3.618.531 5.42l2 1q-3.687.04-7.375.063l-2.117.025c-5.281.025-5.281.025-7.508-1.088v-3l5 1-1-3-3-1v-2h6l1 2 3 1-.125-3.312C240 151 240 151 242 148"/><path fill="#4d89df" d="M27 254c1.46 2.647 2 3.894 2 7l4-1c1.591 4.177 2.213 7.532 2 12-3.626-.57-5.255-1.924-7.75-4.562l-1.86-1.942L24 264l1-3h-3v-3h2v-3z"/><path fill="#2d57cc" d="M145 2h1c.855 5.172 1.154 10.137 1.125 15.375l.012 2.191c-.01 5.307-.01 5.307-1.137 6.434-2.425.26-4.816.436-7.25.563l-2.402.128c-15.427.694-30.91.388-46.348.309v-1l1.988-.06c2.963-.095 5.925-.205 8.887-.315l3.129-.094 2.988-.117 2.761-.095C112.2 25.2 112.2 25.2 114 23v2h31z"/><path fill="#cac7d5" d="m182 150 6 1-.125 2.313c-.096 2.914-.096 2.914 2.125 5.687l-.875 1.68-1.125 2.195-1.125 2.18c-1.012 1.893-1.012 1.893-.875 3.945h-2l-1 7h-1z"/><path fill="#e8cfbf" d="M271 129h10l-1 5 2 1v4l-1.898.402-2.477.536-2.46.527c-2.194.458-2.194.458-4.165 1.535z"/><path fill="#e8e1ef" d="M314 121h2v40l3 1-3 1 1 1c.04 2 .043 4 0 6h-5v-2h2z"/><path fill="#09216e" d="m101 270-1 4-3.867.184-5.008.253-2.55.12-2.442.127-2.254.11c-1.968.106-1.968.106-3.879 1.206-1.945-.34-1.945-.34-4.125-.937l-2.195-.59L72 274v-1l-18-1v-1l37.912-.848 2.73-.06 2.41-.054A203 203 0 0 1 101 270"/><path fill="#7689b1" d="m175 180 2 1c-.458 3.47-.891 6.674-2 10v3l3 1c-3.08 3.672-5.248 4.568-10 5v-11l2-1c.685-1.324 1.349-2.66 2-4 .976-1.351 1.97-2.69 3-4"/><path fill="#4482df" d="M178 204v2l-5 1v-2l-3.062 2.375c-4.924 3.511-9.87 4.993-15.938 4.625v2l-5 1v2l-8 3c1.479-4.33 4.623-5.918 8.438-8l1.9-1.053c8.815-4.772 16.507-7.74 26.662-6.947"/><path fill="#60a1ec" d="m226 179 2 1c.89 3.645 1.237 6.427 0 10h-6v2h-5l-1-9c2.375-1.062 2.375-1.062 5-2l2 1 1-2 1 1z"/><path fill="#6e5954" d="M253 115h68l-2 4v-3h-28l-1 4v-3h-6v2l4-1v2h-6v-3l-2.027.035c-9.025.085-17.974-.438-26.973-1.035z"/><path fill="#070f46" d="m297.313 210.938 2.533.013q3.077.02 6.154.049v1l-3.39.411q-6.308.771-12.613 1.56-2.715.338-5.43.666c-13.69 1.646-13.69 1.646-27.092 4.832-4.215.905-8.275.302-12.475-.469 2.834-2.834 4.912-2.338 8.875-2.5 9.211-.47 18.108-1.941 27.09-4.035L283 212l2.172-.555c4.052-.638 8.046-.55 12.14-.507"/><path fill="#0a2169" d="M271 163h40v7h6v1c-7.75.125-7.75.125-10-1l1-5-3.181.032c-3.888.036-7.775.059-11.663.078q-2.526.016-5.052.04c-2.417.025-4.835.036-7.252.045l-2.29.032c-1.855 0-3.71-.105-5.562-.227z"/><path fill="#596a92" d="M224 123h1l-.02 1.77q-.097 9.1-.145 18.2-.022 3.4-.061 6.799c-.037 3.251-.054 6.503-.067 9.754-.015 1.018-.03 2.036-.047 3.085v2.85l-.02 2.517L225 170l3 2h-9v-8h5v-29h-2q.21-2.72.438-5.437c.08-1.01.162-2.02.246-3.06C223 124 223 124 224 123"/><path fill="#7cb2f3" d="m230 190 1 7h2v2h-16l-1-5h2v4h2l.438-2.312C221 193 221 193 222 190c3.29-1.097 4.713-.8 8 0"/><path fill="#3d68da" d="M183 75h35v1q-2.656.252-5.312.5l-2.989.281C207 77 207 77 204 77l-1 2h-16v2h-2c-2-4.875-2-4.875-2-6"/><path fill="#7991c6" d="M308 125h2c1.023 4.37 1.187 7.037-.437 11.25-1.743 4.57-1.742 8.521-1.473 13.367C308 152 308 152 306 155h-3v-15h2c2.771-6.838 2.771-6.838 2-14z"/><path fill="#6980ad" d="m177 158 1 3 2 1v33c-3 0-3 0-5-1-.687-2.5-.687-2.5-1-5l1-1c.563-2.685 1.08-5.363 1.563-8.062l.42-2.3q.512-2.817 1.017-5.638h-2c-1.097-3.29-.8-4.713 0-8h2z"/><path fill="#e5e5ed" d="M139 188h2v33h2v7h-6v-2h2z"/><path fill="#223696" d="M136 268c10.39-.123 20.64.166 31 1-1 2-1 2-3.5 3.188-4.363 1.012-8.132.722-12.5-.188l-1-1-1 3 2 2-2 3a128 128 0 0 0-1 7h-1v-17h-11z"/><path fill="#8599bf" d="M45 211c3.438.25 3.438.25 7 1 2 3 2 3 1.938 5-1.335 2.847-3.165 3.647-5.938 5h-2v5l-2 1a1890 1890 0 0 1-.062-7.937l-.026-2.288c-.009-1.925.036-3.85.088-5.775z"/><path fill="#96c2f7" d="m294.25 190.813 2.703.082L299 191v7h-18l1-2h3v-2c3.021-2.915 5.121-3.35 9.25-3.187"/><path fill="#e4dee3" d="M58 202h3v46l-2-1z"/><path fill="#5f78af" d="m93 199 2 1-2 14h-2v-3h-5l-1-4H71v-1h14v-2c1.68-1.324 1.68-1.324 3.875-2.687l2.18-1.387z"/><path fill="#183687" d="m136 221 1 7h5v1l-3.36.148-4.39.227c-.73.03-1.46.062-2.21.094-3.869.21-6.666.661-10.04 2.531h-4v2l-4-1c3.287-2.007 6.58-4.004 9.875-6l2.84-1.734 2.715-1.641 2.507-1.523C134 221 134 221 136 221"/><path fill="#9dc7f9" d="m235 194 6 1v2l14-1v-2h5l2 4c-3.574.819-6.857 1.118-10.52 1.098l-3.095-.01-3.197-.025-3.256-.014q-3.966-.018-7.932-.049z"/><path fill="#a3aed1" d="M123 183c-1.323 3.969-2.911 4.3-6.562 6.188l-3.067 1.605L111 192v2c-1.375 1.625-1.375 1.625-3 3h-2v2c-6.75 1.125-6.75 1.125-9 0 1.173-3.52 1.72-3.693 4.86-5.375l2.382-1.297L106.75 191l4.86-2.625 2.314-1.238c1.704-.934 3.373-1.933 5.03-2.95C121 183 121 183 123 183"/><path fill="#a0aaca" d="M37 208h16c-3 2-3 2-8 4l-2 33h-1l-1-6h-1v-8h3v-18l-3-1 1-2z"/><path fill="#172988" d="M145 263h2l1 3 16 1v1l-17 1v17h-1v-16h-17v-2l2.992-.332 3.883-.48 3.867-.458c3.536-.398 3.536-.398 5.258-3.73"/><path fill="#193ab7" d="M147 318h25c-2.521 2.521-3.512 2.294-7.008 2.414l-2.988.117-3.129.094-3.152.117q-3.86.142-7.723.258v3l2 1-.5 2.438c-.592 4.22-.585 8.309-.5 12.562h-2z"/><path fill="#1c38a2" d="M311 212c-2.56 2.011-5.046 3.628-8 5l2 2h-19c7.38-5.535 15.846-7.218 25-7"/><path fill="#5a99e7" d="M141 244c-2.593 2.916-5.59 4.714-8.937 6.688l-3.153 1.886C126 254 126 254 122 254v-7h10l1-2c4.4-2.2 4.4-2.2 8-1"/><path fill="#0e277b" d="M94 244c1.6 3.2.032 5.723-1 9l-2.146-.485c-2.885-.52-5.592-.689-8.522-.761l-3.205-.1q-3.332-.091-6.664-.172l-3.193-.103-2.92-.076C64 251 64 251 62 249l2.292-.028c3.445-.054 6.888-.138 10.333-.222l3.605-.043c8.666-.233 8.666-.233 15.77-4.707"/><path fill="#1d3988" d="m177 196 3 1-1 6 5-1 1 2-3.402.113c-8.024.33-15.095.75-22.598 3.887 3.117-3.295 6.64-5.42 10.5-7.75l2.05-1.285c1.77-1.071 3.607-2.027 5.45-2.965"/><path fill="#60a0eb" d="M312 184c.195 1.958.38 3.916.563 5.875l.316 3.305C313 196 313 196 312 198h-12c4-3 4-3 6-3 1.257-2.906 2-4.796 2-8l-3-2c2.49-.687 4.379-1 7-1"/><path fill="#66a5ef" d="M269 176h2v5l3 1c.352 5.373.352 5.373 0 8-2 2-2 2-4 3v-2l-3-1 2-5-4-1 2-6h2z"/><path fill="#315bd3" d="M92 124c-9.7 6.466-28.74 3.09-40 3v-2c13.339-1.098 26.623-1.109 40-1"/><path fill="#7d8ebf" d="M61 205h24v4l2 1c-1 1-1 1-4.062 1.063L80 211l-1-2-18-1z"/><path fill="#74adf0" d="M204 199h2c.891 2.406 1.019 3.895.563 6.438-2.265 3.713-5.524 5.962-9.563 7.562-2.258-.367-2.258-.367-4-1 .813-1.937.813-1.937 2-4l3-1a396 396 0 0 0 3-5h2z"/><path fill="#3e72c6" d="M26 253h3l1.813 2.5c1.994 2.857 1.994 2.857 5.437 2.813L39 258l-2 2c-.4 2.323-.74 4.657-1 7l2 1-1 2 17 1v1H35l-2-12-4 1-.875-2.937c-.767-3.17-.767-3.17-3.125-4.063z"/><path fill="#5572b5" d="M20 208v9h-1l-2 9h-2c-.955-2.17-1.144-3.563-.398-5.824.757-1.744 1.574-3.462 2.398-5.176h-6v2l-5 1c1.489-4.1 3.77-5.292 7.563-7.25l3.003-1.578C19 208 19 208 20 208"/><path fill="#1e40b3" d="M51 171v1c-5.002 1.323-9.981 1.126-15.113 1.098l-2.938-.005c-3.087-.005-6.174-.018-9.261-.03q-3.147-.008-6.292-.014Q9.698 173.032 2 173v-1q8.297-.469 16.595-.91 2.82-.15 5.636-.31 4.07-.229 8.14-.44l2.51-.148c5.5-.276 10.659.078 16.119.808"/><path fill="#8597bd" d="M215 154h3l.313 2.313c.743 2.906 1.536 3.723 3.687 5.687v2h-3v8h-4v-11l-2-1c.875-4.875.875-4.875 2-6"/><path fill="#2c47ad" d="M243 233c3.356 5.033 4.232 7.888 3.36 13.977-.498 4.186-.704 8.377-.923 12.585l-.132 2.493q-.155 2.973-.305 5.945h-1c-1.821-11.89-2.037-23.02-1-35"/><path fill="#a3acd5" d="m167 156 2 1-1 2h-2l-1 3c-2.57 1.836-4.85 2.954-7.875 3.875-2.804 1.01-4.364 1.929-6.687 3.688-2.773 2.094-4.903 3.116-8.438 3.437 1.24-3.72 2.23-3.987 5.586-5.848l2.82-1.584 2.969-1.63 5.773-3.223 2.6-1.434c1.794-1.02 3.534-2.136 5.252-3.281"/><path fill="#2953d0" d="M2 173h36v1H28l-1 3H17v-3c-.748.095-1.495.19-2.266.29-.984.11-1.97.22-2.984.335l-2.953.352C6 175 6 175 2 173"/><path fill="#889bc2" d="M211 130c4.5 2.25 4.5 2.25 6 6l7-1c-.687 2.438-.687 2.438-2 5-2.625.813-2.625.813-5 1l1 5c-2.139-2.139-2.427-3.133-3-6l-4 1z"/><path fill="#627aa9" d="M56 215h1q.074 6.085.11 12.17.015 2.07.04 4.138c.025 1.986.035 3.972.045 5.958l.032 3.618C57.01 243.88 56.67 245.536 55 248c-2.709 1.354-5.01 1.065-8 1v-2c4.385-3 4.385-3 7-3l-.035-2.047-.028-2.703-.035-2.672C54 234 54 234 54.47 232.156c.803-3.259.901-6.567 1.093-9.906l.131-2.113q.158-2.569.307-5.137"/><path fill="#7d90bb" d="M124 185h4l-1 5 6-1c-1.152 2.468-2.048 4.048-4 6-1.777 2.666-2.875 5.028-4 8h-1z"/><path fill="#3068cb" d="m112 234 2 1-2.437 2.25c-2.333 2.503-3.198 3.468-3.563 6.75l-1.812.25c-2.785.955-3.621 2.321-5.188 4.75v-3h-3c.098-1.73.098-1.73 1-4a63 63 0 0 1 6.438-4.312l1.814-1.127c1.54-.927 3.142-1.753 4.748-2.561"/><path fill="#ceccdc" d="m138 173 5 1h3l-1 2h3v2l-2 1c-1.122 1.88-1.122 1.88-2.125 4.063l-1.07 2.222L142 187h-3zm5 4v3Z"/><path fill="#2343b3" d="m230 263 5 1v2l7 1 1-2v3h-41c3.493-2.329 4.86-2.236 8.98-2.195l3.526.02 3.682.05 3.716.027q4.548.036 9.096.098l1-2z"/><path fill="#93c1f9" d="M318 181h1c.993 5.707 1.105 11.214 1 17h-6c-.286-8.571-.286-8.571 2-12h2z"/><path fill="#83b8f2" d="m264 173 3 1-.254 1.941c-.62 5.26-.774 9.815.254 15.059l.563 2.938L268 196l-1-3-10 1 2-3h4l1-5h-1a888 888 0 0 1-.062-5.375l-.036-3.023C263 175 263 175 264 173"/><path fill="#7bb1f1" d="M306 171v3h-3l-1 3h-2l-2 5-5-3 1-6 3.75-1 2.11-.562C302 171 302 171 306 171"/><path fill="#456ad0" d="M227 117h17v4h-17z"/><path fill="#091654" d="m168 230-.937 1.75c-1.131 2.15-1.131 2.15-1.438 4.25-.858 2.744-2.524 4.102-4.625 6l-2-1v-1l-1.812 1.063C155 242 155 242 152 241c3.75-3 3.75-3 6-3l.063-1.75c1.555-3.733 5.852-6.25 9.937-6.25"/><path fill="#566c9a" d="M20 208h1v25l-3 1c-2.14-6.42-.958-13.415 0-20h1z"/><path fill="#4168d8" d="M222 123c-2.692 3.026-5.967 5.065-9.375 7.188l-1.71 1.115c-3.445 2.148-5.846 3.162-9.915 2.697 5.21-5.906 12.682-12.313 21-11"/><path fill="#c3c1d4" d="M233 125q2.088.323 4.188.563L241 126l-2 1c-.652 2.025-.652 2.025-1 4-1.457.081-2.916.14-4.375.188l-2.46.105L229 131c-2-3-2-3-2-6 3-1 3-1 6 0"/><path fill="#426bdb" d="M291 116h22v3h-21z"/><path fill="#d3d0db" d="M239 127c1.115 3.345.805 5.6 0 9v2h-9v-2l-1-1c.438-2.062.438-2.062 1-4l8-1z"/><path fill="#6b82b0" d="m135 176 .184 2.082.254 2.73c.08.894.162 1.787.246 2.708.25 2.607.25 2.607 1.316 5.48-.088 2.746-.23 5.45-.437 8.188l-.159 2.271q-.196 2.77-.404 5.541l-4 1 2-3c1.497-6.337.922-11.155-2-17a76 76 0 0 1 1-5l-3-2c2.75-3 2.75-3 5-3"/><path fill="#335294" d="m218 172 1 4-3 1-1 3h-3.187c-5.211.58-9.177 3.43-13.42 6.293-1.43.954-2.91 1.837-4.393 2.707l-2-1c8.62-5.412 17.238-10.819 26-16"/><path fill="#b7acb7" d="m258 144 7 1-2 9h-2v2h-2l-1 2z"/><path fill="#606d93" d="M313 122h1v46h-2l-1 2v-7l-2-1h4z"/><path fill="#4568cd" d="m77 25 2.235.199c9.357.782 18.695 1.112 28.078 1.363l4.591.131q5.548.159 11.096.307v1H76z"/><path fill="#173cc1" d="M61 202h23v2c-7.65 1.25-15.274 1.09-23 1z"/><path fill="#5d6684" d="M138 180h1v46l-3-1v-5h2l-.508-2.499c-.546-3.885-.519-7.619-.37-11.524l.07-2.262q.117-3.545.245-7.09.081-2.415.159-4.832.193-5.897.404-11.793"/><path fill="#3e65d5" d="m54.438 171.902 2.32.005c2.414.005 4.828.018 7.242.03q2.475.008 4.95.014 6.024.017 12.05.049v1H51v13h-1l-1-11-11-1v-1a109.5 109.5 0 0 1 16.438-1.098"/><path fill="#3872ce" d="M229 166c3.25-.03 6.5-.047 9.75-.062l2.79-.026 2.694-.01 2.476-.016c2.23.111 4.151.493 6.29 1.114v2l5 1-1 2c-2.066.414-2.066.414-4.562.625l-2.504.227L248 173v-6h-19z"/><path fill="#bba5a4" d="M257 121q2.219-.04 4.438-.062l2.496-.036C266 121 266 121 267 122c.178 2.287.268 4.581.313 6.875l.113 3.805C267 136 267 136 264.98 137.945L263 139l-1-4h2l-.254-1.863-.308-2.45-.317-2.425C263 126 263 126 264 123l-7-1z"/><path fill="#1c3ebb" d="M20 205c-.07 1.738-.07 1.738-1 4a68 68 0 0 1-6.875 4.188l-1.934 1.076C7.494 215.748 4.926 217.024 2 218c.377-2.383.614-3.661 2.459-5.28l1.85-1.08 2.013-1.19c.698-.397 1.396-.792 2.116-1.2l2.103-1.246C17.696 205 17.696 205 20 205"/><path fill="#2040b5" d="m113 184 2 1c-1.145 3.435-1.57 3.617-4.598 5.262l-2.177 1.2-2.287 1.226A882.672 882.672 0 0 1 98 197l-1.001-3.001c10.8-7.347 10.8-7.347 16-10"/><path fill="#a4afc9" d="m211 141 4 1c.625 2.813.625 2.813 1 6l-2 3 2 1-1.457 1.113c-2.155 2.635-2.05 4.712-2.23 8.075l-.2 3.292L212 167h-1z"/><path fill="#5c98e7" d="M50 266h4l-1 5H38l1-3 2.152-.184 2.785-.253 2.778-.247c2.247-.076 2.247-.076 3.285-1.316"/><path fill="#2c65cc" d="M63 252h18v3c-4.12 1.998-7.452 2.178-12 2v-4h-6z"/><path fill="#2c50bd" d="M316 208h1v5h2l1 3 7 1v1h-16v-6l1.938-.312L315 211z"/><path fill="#3459c8" d="M2 124c13.36-.161 26.657.335 40 1v1c-28.152 1.4-28.152 1.4-40 0z"/><path fill="#2862ca" d="M38.867 252.54C41 253 41 253 46 257l-13 2-1-3-2-1c3.192-2.128 5.104-2.299 8.867-2.46"/><path fill="#fbd727" d="m284 88 2 1v8h1v16h-3z"/><path fill="#495c85" d="M20 233h1v27l-1-2-3-1 .563-1.812c.658-2.352.658-2.352-.563-5.188.462-1.914.93-3.828 1.453-5.727.893-3.711 1.213-7.476 1.547-11.273"/><path fill="#646d8d" d="M268 122h1v47h-3l.48-1.895c.714-4.261.756-8.467.836-12.78l.063-2.804q.097-4.417.183-8.833l.131-6.002q.16-7.343.307-14.686"/><path fill="#070f49" d="M60 283c-1.527 3.436-3.6 6.12-6 9-3.367-1.393-4.986-2.979-7-6l1.625-.375c2.51-.628 2.51-.628 5.438-1.687C57 283 57 283 60 283"/><path fill="#071365" d="M105.125 273.875 108 274c-3.219 3.734-6.435 5.238-11 7l-2.75 1.313L92 283l-3-2c1.418-2.836 3.048-2.994 6-4l2.688-.5c3.43-.742 3.679-2.475 7.437-2.625"/><path fill="#79b1f2" d="M309 188c-1.31 3.927-2.79 6.356-6 9-2.25.75-2.25.75-4 1v-7c3.73-2.034 5.67-3 10-3"/><path fill="#918bbb" d="m323 113-1 6h-2l1-4h-31v-1c11.019-.707 21.957-1.147 33-1"/><path fill="#7d90b5" d="m175 180 2 1c-.125 3.188-.125 3.188-1 7l-6 5c-.968 3.68-.968 3.68-1 7h-1v-11l2-1c.685-1.324 1.349-2.66 2-4 .976-1.351 1.97-2.69 3-4"/><path fill="#576e9f" d="M19 234h1c.248 6.57-.676 12.57-2 19h-3c-1.157-4.05-.882-6.237 1-10l1-1-.062-2.937C17 236 17 236 19 234"/><path fill="#3d78d5" d="m126 231-1.977 1.031c-6.24 3.46-10.24 6.911-14.023 12.969l-3-2c1.56-3.83 3.876-6.322 7-9h4v-2c4.625-2.125 4.625-2.125 8-1"/><path fill="#dad5e0" d="M320 119h2l2 6-2-1-1 38h-1q-.25-8.703-.482-17.407-.08-2.963-.166-5.925-.122-4.253-.23-8.504l-.083-2.686c-.153-6.25-.153-6.25.961-8.478"/><path fill="#294fcc" d="M245 269a609 609 0 0 1 6.313-.125l3.55-.07C258 269 258 269 261 271c-2.845 1.422-5.664 1.378-8.809 1.621-2.475.276-2.475.276-5.191 2.379l-2-1z"/><path fill="#68a2e8" d="M229 167h19v2h-14l-1 2h3l1 7h-2v-2h-3v-8z"/><path fill="#8f9dc3" d="m305 124 1 3-2 2a92 92 0 0 0-.195 7.633l.008 2.278c.011 2.405.037 4.81.062 7.214q.016 2.443.027 4.887.035 5.994.098 11.988h-2q-.111-7.849-.165-15.698a879 879 0 0 0-.061-5.343 851 851 0 0 1-.067-7.67c-.015-.799-.03-1.598-.047-2.421 0-2.244 0-2.244.34-5.868z"/><path fill="#546b9c" d="M137 198h1v22h-5l-1-6h2v-2h2z"/><path fill="#dddbe1" d="M182 177h1c1.281 6.407 1.598 12.606 0 19h2v7h-5v-2h2z"/><path fill="#3057cf" d="M92 122h32v1l-2.08.06c-3.098.095-6.197.205-9.295.315-1.08.03-2.16.062-3.273.094l-3.125.117-2.889.095c-2.527.105-2.527.105-4.338 2.319-3.625.125-3.625.125-7 0z"/><path fill="#fbd336" d="M267 117v3h-21v-2c7.027-.666 13.94-1.118 21-1"/><path fill="#dbd2d1" d="m95 199 2 1 1 7 2 1-1 4h-3v14h-1z"/><path fill="#0f297f" d="M293 198q4.25-.04 8.5-.062l2.398-.026c5.13-.02 10.025.349 15.102 1.088l-3 6-1-2h-5v-4h-17z"/><path fill="#5288d7" d="m219 172 3 1c-1.312 3.438-1.312 3.438-3 7-3.473 1.158-6.36 1.069-10 1v3h-7c3.263-2.89 5.593-4.652 10-5l3 1 1-4h3z"/><path fill="#2b4fc0" d="M245 317h19l-4 4-2-1c-2.207-.07-4.417-.084-6.625-.062l-3.602.027L245 320z"/><path fill="#8d9bbf" d="m123 224 4 2a745 745 0 0 1-7.25 4.563l-2.066 1.326-2.012 1.24-1.84 1.158c-2.312.9-3.531.515-5.832-.287l2.117-1.207 2.758-1.606 2.742-1.582c2.616-1.542 2.616-1.542 4.383-4.605l3 1z"/><path fill="#546491" d="M179 181c3.11 4.666 3.123 8.796 3.063 14.313l-.028 3.238L182 201h-2l-1 2z"/><path fill="#5074da" d="m322 168 2 1c2.713.232 5.408.42 8.125.563l2.285.13q2.795.158 5.59.307v2l-3.14.148-4.11.227c-.682.03-1.364.062-2.066.094-3.671.214-6.547.542-9.684 2.531z"/><path fill="#1a349e" d="M79 318h32c-2 2-2 2-4.625 2.125L104 320l-1 2v-2H80z"/><path fill="#316cd4" d="m87.188 253.938 3.292.027L93 254l1 4-2.937-.562c-4.904-.711-10.568-.685-15.063 1.562.813-1.937.813-1.937 2-4 3.285-1.095 5.737-1.1 9.188-1.062"/><path fill="#4570e1" d="M292 74h22l1 2-1.896.076q-4.24.176-8.479.362l-2.984.119-2.852.127-2.634.11c-2.203.08-2.203.08-4.155 1.206z"/><path fill="#6a749d" d="M20 204h3v3h33v1l-35 1z"/><path fill="#7288c2" d="m174 152 3 1-1 6h-3l.188 2.375L173 164l-3 2v-6h2l-.687-2.312L171 155c1.438-1.812 1.438-1.812 3-3"/><path fill="#667ebe" d="m224 120 1 3-1 2-.437 2.875c-.505 2.8-1.157 4.688-2.563 7.125l-.375-2.875c-.342-3.212-.342-3.212-2.625-5.125l3-3-3-2c3.75-2 3.75-2 6-2"/><path fill="#c4b8a1" d="M187 83h15v4h-15z"/><path fill="#1a2f85" d="M239 225c-3.201 2.134-5.265 2.432-9 3l-1 1c-2.028.225-4.057.448-6.09.621-2.143.241-2.143.241-3.91 2.379-3.125-.375-3.125-.375-6-1 3.332-3.332 7.941-3.64 12.438-4.687l2.931-.721 2.815-.666 2.58-.612C236 224 236 224 239 225"/><path fill="#3162e1" d="M338 196h2v22h-5l1.482-1.222c1.914-2.242 1.87-3.316 1.811-6.227l-.03-2.569-.075-2.67-.042-2.705A550 550 0 0 0 338 196"/><path fill="#3c67de" d="M325 156c2 2 2 2 2.195 4.383L327 168l13 1v1h-17l1-2c.229-2.037.41-4.08.563-6.125l.253-3.32z"/><path fill="#244fcd" d="M242 312h1v9h-4v-2l-2.125.625c-3.477.454-5.649-.35-8.875-1.625v-1h14z"/><path fill="#89bbf4" d="m230 190 1 7h2v2h-7l-1-8c3-1 3-1 5-1"/><path fill="#dbd8de" d="m182 150 4 2h-2l.035 2.71c.054 7.172-.117 14.175-1.035 21.29h-1z"/><path fill="#375fad" d="m157 208 2 1-3 1v2h-2v2l-5 1v2l-8 3c1.474-4.534 5.061-6.15 9-8.312l1.945-1.127c1.647-.925 3.348-1.752 5.055-2.561"/><path fill="#b8b8ce" d="M242 148h1l.148 3.246.227 4.191.094 2.143c.104 1.812.31 3.618.531 5.42l2 1h-6a609 609 0 0 1-.125-6.312l-.07-3.551C240 151 240 151 242 148"/><path fill="#4481d9" d="m293 166 7 2v3l2 1c-6.152.879-6.152.879-8 1-1-1-1-1-1.062-4.062z"/><path fill="#c9cee2" d="M322 161h2v7h-2l-1 7h-2l.563-2.437L320 170l-1-1a100 100 0 0 1 0-5h3z"/><path fill="#ab9ca7" d="M266 136h1v12h-2v4h-2l.625-2.812c.742-3.34.742-3.34-1.625-6.188l2-2q.544-1.99 1-4z"/><path fill="#cdcbdf" d="M227 123h16v6l-2-1 1-2-2.012.035c-8.77.09-8.77.09-12.988-1.035z"/><path fill="#ebd1c2" d="M271 123h7l2 4c-1 1-1 1-2.848 1.098L271 128z"/><path fill="#071358" d="M73 272h17v2l-3.875.438c-2.382.268-3.97.484-6.125 1.562-1.945-.34-1.945-.34-4.125-.937l-2.195-.59L72 274z"/><path fill="#99a6c3" d="M43 222h1c.157 7.716-.325 15.315-1 23h-1l-1-6h-1v-8h3z"/><path fill="#293e8c" d="M256 219c8.726-.097 17.33-.167 26 1-2.172 2.457-2.639 2.963-6.062 3.313C273 223 273 223 271 221c-2.57-.306-5.048-.51-7.625-.625l-2.14-.117c-1.745-.094-3.49-.177-5.235-.258z"/><path fill="#244bc6" d="M112 172h17c-1 2-1 2-4.062 3.125L122 176v-2l-2.75.625c-3.36.388-4.49.18-7.25-1.625z"/><path fill="#0a123f" d="M243 215v4h-13l2-3c3.767-.658 7.188-1 11-1"/><path fill="#193197" d="M303 213v2l-7 2 1 2h-11c3.22-2.415 4.88-3.516 8.5-4.687l2.281-.762C299 213 299 213 303 213"/><path fill="#d6d5e2" d="M58 202h3v18h-2z"/><path fill="#122f7a" d="M219 164h5l-1 7h5v1h-9z"/><path fill="#798cbb" d="m306 155 3 3-1 2 2 2c-1 1-1 1-3.5 1.125C304 163 304 163 303 162c-.04-2-.043-4 0-6z"/><path fill="#c4b0af" d="M263 137v2l2 1-1 3-6 1v-6c2-1 2-1 5-1"/><path fill="#2c51c6" d="M226 269h17v4h-6l-1-3h-10z"/><path fill="#112174" d="m123.188 267.375 3.292.336L129 268v2l-13 2-2-3c3.644-2.43 4.93-2.083 9.188-1.625"/><path fill="#aeadbf" d="M24 229h1v18l3 1c-1.375 1.5-1.375 1.5-3 3h-2v6h-1q-.062-3.5 0-7l1-1c.157-1.486.25-2.98.316-4.473l.127-2.724.12-2.865.13-2.877q.16-3.53.307-7.061"/><path fill="#6e81ae" d="m85 204 5 1-2 2 2 1-1 3-3-1-1-3H71v-1h14z"/><path fill="#1c45a8" d="m136 225 1 3h5v1l-18 1c3.361-3.361 3.361-3.361 7.125-3.625 3.65.061 3.65.061 4.875-1.375"/><path fill="#2b48b1" d="M151 163c-.215 1.828-.215 1.828-1 4-2.066 1.484-2.066 1.484-4.562 2.75l-2.504 1.297L141 172c.559-4.614.559-4.614 2.559-6.363C148.778 163 148.778 163 151 163"/><path fill="#cccad7" d="M231.98 141.734c2.009.015 4.016.135 6.02.266l1 5h-2l-2-2-1.75 1.063c-2.608 1.086-3.644.868-6.25-.063 1.259-2.518 2.096-3.879 4.98-4.266"/><path fill="#617ab4" d="m310 121 4 1-2 16c-2.16-3.24-2.272-4.249-2.25-8l-.016-2.625C310 125 310 125 312 122z"/><path fill="#1838b0" d="M147 295h1v6h2l1 4-2 1c-.468 2.356-.468 2.356-.625 5.063l-.227 2.785L148 316l3 1h-4z"/><path fill="#1d3bab" d="m190 264 1 2 1.563-.625c3.47-.534 6.143.548 9.437 1.625v1h-22v-1l3.875-.375c3.473-.315 3.473-.315 6.125-2.625"/><path fill="#0a1547" d="M194 215v2l-2 2a89 89 0 0 0-2 4l-3-2c-2.646.312-2.646.312-5 1 2.798-3.291 7.597-7 12-7"/><path fill="#193dc2" d="M85 193c1.625 2 1.625 2 3 4-3.062 1.784-5.22 2.229-8.75 2.125l-2.422-.055L75 199l1-2c3.063-.625 3.063-.625 6-1l-1-2c2-1 2-1 4-1"/><path fill="#6aa7f0" d="M309 189c.978 3.043 1.046 4.968 0 8-1 1-1 1-2.848 1.098L300 198c3.75-3 3.75-3 6-3l.938-2.437C308 190 308 190 309 189"/><path fill="#b6b9cd" d="m196 178 2 3c-2 3-2 3-5.062 3.75L190 185c-1-1-1-1-1.062-3.562L189 179l7 1z"/><path fill="#8196bd" d="M315 162h7v2h-3v5l2 1-2 5c-1.934-2.9-2.275-3.79-2.562-7.062-.184-3.718-.184-3.718-1.438-5.938"/><path fill="#3a69e5" d="M174.574 69.926q2.06.17 4.113.386l2.127.186c1.73.153 3.458.326 5.186.502v2h-18c3-3 3-3 6.574-3.074"/><path fill="#18368b" d="m107 264 2 1c-1.933 2.025-3.632 3.421-6 5v2l3-1 1 2-7 1 1-4-2-1a351 351 0 0 1 3.875-2.562l2.18-1.442z"/><path fill="#2a4dc2" d="m230 263 5 1v2l7 1 1-2v3h-16l-1-2h5l1-2z"/><path fill="#68a2e9" d="M94 265h5v5h-9l1-3h3z"/><path fill="#6882af" d="M16 240h2l-2 4-1-2zm-2 4c.773 2.982 1.412 5.976 2 9l3 1-4 1-4-5z"/><path fill="#2d4e9c" d="m112 234 2 1-2.3 1.39-3.013 1.86-2.988 1.828c-2.543 1.81-3.904 3.425-5.699 5.922h-2c.098-1.73.098-1.73 1-4a63 63 0 0 1 6.438-4.312l1.814-1.127c1.54-.927 3.142-1.753 4.748-2.561"/><path fill="#050a32" d="M206 220h14c-3.352 1.676-5.487 2.42-9.062 3.063-2.77.503-5.26 1.044-7.938 1.937l1-3h2z"/><path fill="#627fb9" d="M13 214c2.125.375 2.125.375 4 1l-1 6-5 1c0-6 0-6 2-8"/><path fill="#93a1d0" d="M123 183c-1.307 3.92-2.787 4.28-6.375 6.188l-2.96 1.605C111 192 111 192 108 192c3.379-3.966 9.54-9 15-9"/><path fill="#d0cfda" d="m187 152 .375 1.813c.58 2.45.58 2.45 2.625 5.187l-3 5c-2.68-4.019-2.156-6.242-2-11z"/><path fill="#091e70" d="M144.75 244.5c3.396.522 5.913.215 9.25-.5-3.135 2.653-6.006 4.022-10 5-2.875-.375-2.875-.375-5-1l1-3c2-1 2-1 4.75-.5"/><path fill="#a5a7be" d="M181 144h2l-1 22h-1c-.196-3.479-.38-6.958-.562-10.437l-.17-3.01-.147-2.862-.143-2.65C180 145 180 145 181 144"/><path fill="#585898" d="M199 134a286 286 0 0 1-4.187 3l-2.356 1.688c-2.74 1.463-4.398 1.573-7.457 1.312 3.039-3.672 9.136-8.432 14-6"/><path fill="#74abee" d="M204 208a140 140 0 0 1-7 5c-2.187-.375-2.187-.375-4-1 .813-1.937.813-1.937 2-4 3.478-1.16 5.459-.708 9 0"/><path fill="#5b5081" d="M98 194q-2.897 1.798-5.812 3.563l-3.27 2.003C86 201 86 201 83 200c1.256-2.511 2.32-2.846 4.813-4.062l2.082-1.036c5.336-2.287 5.336-2.287 8.105-.902"/><path fill="#c0c1d9" d="M243 140c.09 5.152-.153 9.92-1 15-1.906-3.212-2.223-5.539-2.125-9.25l.055-2.703L240 141c2-1 2-1 3-1"/><path fill="#cda324" d="M285 80h3v8h-4q-.062-3.5 0-7z"/><path fill="#243faa" d="M167 269h16v1h-10l-1 3c-1.937-.312-1.937-.312-4-1z"/><path fill="#576d9f" d="M92 234h1l1 11h-3c-2-3-2-3-2-6h2z"/><path fill="#3464ba" d="M192 189v3h-2v2h-3l-1 3-2-1c.188-1.812.188-1.812 1-4 4.179-3 4.179-3 7-3"/><path fill="#81b0e9" d="M270 169h3l2 2c-1.375 2-1.375 2-3 4h-2v-2h-2l-1 2h-3l-1-3h7z"/><path fill="#f8d434" d="M272 117h10v3h-10z"/><path fill="#1938a5" d="M151 270h15c-4.346 3.26-4.748 3.343-9.75 2.688l-2.984-.364L151 272z"/><path fill="#546dcc" d="M243 256h1v12h7v1c-5.687.914-10.313.914-16 0v-1h8z"/><path fill="#3d77d7" d="M100 246c1.991 2.986 2.941 5.597 4 9l-3 1c-.733 2.015-.733 2.015-1 4l-2-2c.242-2.82.242-2.82.875-6.125l.617-3.32z"/><path fill="#1f55c6" d="M73 252h8v3l-8 1z"/><path fill="#a1ccf9" d="M255 194h5l2 4-7 1-1-3z"/><path fill="#627db4" d="M135 176v11h-3l1-6-3-2c2.75-3 2.75-3 5-3"/><path fill="#c8cfeb" d="M225 118h2v3h16v1l-18 1-1-4z"/><path fill="#5493e5" d="M32 261c2.398 2.398 2.343 3.333 2.625 6.625l.227 2.477L35 272l-4-1c0-3.51.375-6.565 1-10"/><path fill="#346dd0" d="M26 253h3c2.063 2.375 2.063 2.375 4 5l2 2-6 1-.875-2.937c-.767-3.17-.767-3.17-3.125-4.063z"/><path fill="#629de7" d="M172 225c-.997 2.493-1.65 3.775-3.937 5.25C166 231 166 231 163 231v-3c5.625-3 5.625-3 9-3"/><path fill="#0a1236" d="M215 205c-1.562 2-1.562 2-4 4-3.75.25-3.75.25-7 0 3.35-3.686 6.035-5.773 11-4"/><path fill="#71abef" d="m225 189 3 2h-3l1 2c.04 2 .043 4 0 6h-2l-2-9z"/><path fill="#92a0be" d="M214 167h2l-1 5 3 1c-3 2-3 2-5.187 1.625L211 174l1-2 .5-2.062C213 168 213 168 214 167"/><path fill="#46547d" d="M137 214h2v12l-3-1v-5h2z"/><path fill="#112e87" d="m177 196 3 1-1 6-5-2v-3z"/><path fill="#97a3cd" d="m105 192 2 2-1 2-1.875.438c-2.492.66-3.458 1.645-5.125 3.562l-2-1c1.464-4.392 3.978-4.88 8-7"/><path fill="#c5c9dd" d="M269 161c3.938 4.308 3.938 4.308 4.25 7.813L273 171l-6-1 2-1z"/><path fill="#51618d" d="M313 157h1v11h-2l-1 2v-7l-2-1h4z"/><path fill="#7d93cc" d="M217 126c2 1 2 1 3 3-1.187 1.5-1.187 1.5-3 3-2.687.188-2.687.188-5 0 1.37-3.161 1.99-3.993 5-6"/><path fill="#2f5ce5" d="M148 108h2c1.327 3.981 1.07 7.85 1 12h-3z"/><path fill="#5373d5" d="M146 65c2.565 2.565 2.54 4.477 3 8l7 1v1h-10z"/><path fill="#112381" d="m146 254 1 3h2c.195 6.055.195 6.055 0 8l-2 2c-.872-2.995-1.108-5.636-1.062-8.75l.027-2.422z"/><path fill="#2e58d1" d="M317 213h2l1 3 7 1v1h-12c1-4 1-4 2-5"/><path fill="#62a0eb" d="m180 204 2 1v3l3 1-1 4-4-1z"/><path fill="#1a46a4" d="m178.625 201.313 2.352.238C183 202 183 202 185 204h-17c3.234-3.234 6.225-3.18 10.625-2.687"/><path fill="#748ab4" d="M222 152c1.642 3.283.519 6.425 0 10l-1-2-3-1v-5z"/><path fill="#caccd9" d="m200 148 2 1v3l-9 2v-2c5.273-3.223 5.273-3.223 7-4"/><path fill="#365cd0" d="M180 147c-1.251 3.754-2.565 4.24-6 6h-2c.313-1.875.313-1.875 1-4 3-2 3-2 7-2"/><path fill="#8695db" d="M308 113h15l-1 6h-2l1-4-13-1z"/><path fill="#4481df" d="M44 258c-2.312 2.5-2.312 2.5-5 5h-3c.25-1.875.25-1.875 1-4 2.907-2.035 3.529-2.157 7-1"/><path fill="#5490e4" d="M141 244c-2.545 2.969-5.49 4.362-9 6 .188-2.375.188-2.375 1-5 3.275-1.896 4.355-2.215 8-1"/><path fill="#03083c" d="m160 235 3 1-3 1-.812 2-1.188 2c-3.125.75-3.125.75-6 1a91 91 0 0 1 4-4h2v-2z"/><path fill="#5f9ae4" d="M207 184c-2.625 3.875-2.625 3.875-6 5v-2l-4-1a328 328 0 0 1 3.875-1.562l2.18-.88C205 183 205 183 207 184"/><path fill="#92c1f5" d="m264 173 3 1c-.75 7.75-.75 7.75-3 10a491 491 0 0 1-.562-4.375l-.317-2.46C263 175 263 175 264 173"/><path fill="#2050b3" d="M249 166q3.688-.04 7.375-.062l2.117-.026c5.281-.025 5.281-.025 7.508 1.088l-1 4v-2h-3v-2h-13z"/><path fill="#2742a8" d="M283 220h12c-2.59 2.59-4.027 2.374-7.625 2.625l-3.04.227L282 223z"/><path fill="#3f77d4" d="m165 205 1 2c-3.288 2.912-5.599 4.497-10 5v-2z"/><path fill="#8abcf6" d="m281 191 3 1v4l-7 1 2-4h2z"/><path fill="#1b3ebb" d="m94 188 5 1a141 141 0 0 1-5 5h-2c.506-2.169 1-4 2-6"/><path fill="#5594e5" d="m221 172 4 1c0 3 0 3-1.375 4.688C222 179 222 179 220 179z"/><path fill="#625785" d="m149 164-11 6v-3c1.264-.7 2.537-1.384 3.813-2.062l2.144-1.16C146 163 146 163 149 164"/><path fill="#264dca" d="M168 150a417 417 0 0 1-4.812 3.063l-2.708 1.722C158 156 158 156 155 155l4-1v-2c5.625-3.125 5.625-3.125 9-2"/><path fill="#e6d7c2" d="M187 80h10l-2 3c-1.945.293-1.945.293-4.125.188L187 83z"/><path fill="#84b7f4" d="M295 190v1l-3.375.938c-3.42.885-3.42.885-5.625 2.062l-1-3c1-2 1-2 2.75-2.75 2.894-.322 4.65.523 7.25 1.75"/><path fill="#86baf3" d="M316 186h2c-.537 3.377-1.11 6.697-2 10h-2c-.18-3.947-.094-6.598 2-10"/><path fill="#a5a0b1" d="M264 153h1v9h-5z"/><path fill="#92a2cd" d="m305 124 1 3-2 2c-.463 2.662-.463 2.662-.625 5.625l-.227 3.04L303 140h-1a487 487 0 0 1-.187-6.875l-.106-3.867L302 126z"/><path fill="#3665dd" d="m161 72 1 2h-13v-1c4.421-1.79 7.365-2.294 12-1"/><path fill="#3358c7" d="M228 317h11l-2 3-9-2z"/><path fill="#5592e3" d="M53 266c.563 1.938.563 1.938 1 4-1 1-1 1-3.066 1.098l-2.496-.036-2.504-.027L44 271l1-2 2.313.188c2.732.071 2.732.071 4.5-1.688z"/><path fill="#545f87" d="m94 246 1 2 3 1h-2v2l3 1v2l-6-1z"/><path fill="#0e1e69" d="m208 228 7 1c-2.278 2.278-3.938 3.052-7 4-2.312-.375-2.312-.375-4-1h3z"/><path fill="#9ca6bd" d="M108 228h3v2l3 1-6 3c-1.125-3.75-1.125-3.75 0-6"/><path fill="#85b8f4" d="m203 203 3 1-1 4-6 1 2-4h2z"/><path fill="#224aa3" d="m308 166 3 1v3h6v1c-7.75.125-7.75.125-10-1z"/><path fill="#909fc7" d="m211 130 4 2v4l-4 2z"/><path fill="#dbc5c0" d="M282 122h6v4l-3 1c-1.5-1.375-1.5-1.375-3-3z"/><path fill="#09145b" d="M51 287h6l-3 5-4-2z"/><path fill="#020d4e" d="M155 243c-3.825 2.39-7.597 2.56-12 3 1-2 1-2 3.188-3.187 3.311-.957 5.487-.586 8.812.187"/><path fill="#7285ad" d="M123 222h7l1 2-7 2z"/><path fill="#102056" d="M204 209v2c-3.071 2.953-5.833 3.527-10 4 5.6-6 5.6-6 10-6"/><path fill="#444584" d="m6 209 4 1-8 5c1-4 1-4 4-6"/><path fill="#8fbff4" d="m235 194 6 1-3 4-4-1z"/><path fill="#233caa" d="m103 191 1 3-7 3c.313-1.875.313-1.875 1-4 3-2 3-2 5-2"/><path fill="#84b7f6" d="m299 173 2 1-3 1v7l-3-2c-.187-2.625-.187-2.625 0-5 1.875-1.062 1.875-1.062 4-2"/><path fill="#bfc2d3" d="M315 164h2v6h-5v-2h2z"/><path fill="#7a8dba" d="M176 157v2h-3l.188 2.375L173 164l-3 2v-6h2v-2c2-1 2-1 4-1"/><path fill="#e1cd9a" d="M267 117h3v4h-12v-1h9z"/><path fill="#2e5ce2" d="m201 120 2 2h-9l-1-2c3.323-1.108 4.692-.933 8 0"/><path fill="#081e76" d="M129 254h2v2h-2l-1 4-4-1 1-4h3z"/><path fill="#1a3d93" d="m138 246 2 1c-2.428 2.428-5.13 4.128-8 6l-2-2a351 351 0 0 1 3.875-2.562l2.18-1.442z"/><path fill="#667ead" d="M88 239a56.5 56.5 0 0 1 4 7l-3 2-3-2h2z"/><path fill="#1b2c7e" d="M250 221v2h-5l-1 3-4-2c6.625-3 6.625-3 10-3"/><path fill="#a3cdf7" d="m291 195-1 3h-9l1-2c3.02-.55 5.926-1 9-1"/><path fill="#6099e4" d="M273 166h8c-2.312 2.063-2.312 2.063-5 4l-3-1z"/><path fill="#1e4dd8" d="m29 167 5 1-1 3h-6z"/><path fill="#a7b2da" d="M211 131v2c-1.531 1.29-1.531 1.29-3.5 2.625l-1.969 1.352L204 138l-2-1c5.8-6 5.8-6 9-6"/><path fill="#c6aca2" d="M257 121h9c0 4 0 4-2 7l-1-2 1-3-7-1z"/><path fill="#071973" d="m124 263 2 1-2 2 2 2h-8c1.933-2.025 3.632-3.421 6-5"/><path fill="#a1aac3" d="M24 255h2v7l-4-1v-3h2z"/><path fill="#3878dd" d="m78 255 9 1v1c-.94.09-.94.09-1.898.184l-2.477.253-2.46.247c-2.208.207-2.208.207-4.165 1.316z"/><path fill="#adb7d1" d="M100 246v7l-6-1 2-1v-2c2.654-3 2.654-3 4-3"/><path fill="#102782" d="M155 245v2c-2.905 2.042-4.401 3-8 3 1-3 1-3 2.875-4.187C152 245 152 245 155 245"/><path fill="#aeb3c7" d="M141 222c.553 2.076 1 3.844 1 6h-5v-2h2v-3z"/><path fill="#5c76ab" d="M16 218h2l-1 8h-2c-.93-2.606-1.15-3.642-.062-6.25z"/><path fill="#5470ac" d="m93 199 2 1-2 5-4-2z"/><path fill="#bcbecf" d="m183 197 2 1v5h-5v-2h2z"/><path fill="#84b7f4" d="M299 191h3v6l-3 1z"/><path fill="#396be0" d="M204 75h14v1q-2.656.252-5.312.5l-2.989.281C207 77 207 77 204 77z"/><path fill="#030837" d="M68 272h5l-3 6-2-1 1-1-2-2z"/><path fill="#3c7edc" d="M95 260h4v2h2v3h-2v-2l-6-1z"/><path fill="#5083d1" d="M27 254c1.032 3.095.975 4.526.563 7.688l-.31 2.449L27 266l-3-3 1-1 .5-3.5c.5-3.5.5-3.5 1.5-4.5"/><path fill="#0f2c84" d="m123 255 2 1 1 3-5 2-1-4z"/><path fill="#273667" d="M19 253h2v7l-1-2-3-1z"/><path fill="#4078d2" d="m145 217 3 1-1 3h-6z"/><path fill="#1941c2" d="M50 191h2v8h-2a177 177 0 0 1-1-7z"/><path fill="#5292e7" d="M194 190h1l-1 7-3 1c.547-3.375 1.055-5.082 3-8"/><path fill="#5f75a2" d="M177 189h2l1 6h-3a88 88 0 0 1-1-5z"/><path fill="#6b85c0" d="m129 178 4 2v3l-5-1z"/><path fill="#7e93c3" d="m306 155 2 2-2 4h-3v-5z"/><path fill="#d6bab7" d="M264 124v4h-6l1-3c3-1 3-1 5-1"/><path fill="#345fdb" d="m216 115 5 4-6 2a100 100 0 0 1 0-5z"/><path fill="#4b75df" d="m203 79 3 2c-.375 2.438-.375 2.438-1 5l-2 1z"/><path fill="#5f74a4" d="M16 243h1l-1 10-2-3c.875-3.687.875-3.687 2-7"/><path fill="#07146e" d="m172 241-5 5-1-3-2-1c2.928-.976 4.956-1.082 8-1"/><path fill="#040d4d" d="M190 234c-1.25 1.5-1.25 1.5-3 3h-4v-3c2.667-1.333 4.167-.671 7 0"/><path fill="#2859d9" d="M338 210h2v8h-5l1.5-1.187c1.956-2.364 1.742-3.827 1.5-6.813"/><path fill="#4e5f8d" d="M268 161h1v8h-3c.523-2.763 1.109-5.326 2-8"/><path fill="#243fb0" d="m151 163-1 4-4 1c.375-1.937.375-1.937 1-4 2-1 2-1 4-1"/><path fill="#8194c8" d="m170 154 2 1v5h-4c.875-4.875.875-4.875 2-6"/><path fill="#6d6695" d="M227 116v2c-3.228 2.152-4.284 2.2-8 2l2-1v-2c2.076-.553 3.844-1 6-1"/></svg>