<svg id="svg" version="1.1" xmlns="http://www.w3.org/2000/svg" style="display:block" viewBox="0 0 454 454"><defs><style>path{stroke:#ff0}</style></defs><path d="M0 0h454v454H0V0Z" style="fill:#00657e"/><path d="M0 0h154v75l-10 9-57 57c-190 0-190 0-220-30h3V92h26V74h26V55h26V37h26V18H0V0Z" transform="translate(235 313)" style="fill:#00667f"/><path d="M0 0h132v132c-4.402-3.773-8.52-7.395-12.587-11.467l-1.565-1.562a3472.414 3472.414 0 0 1-5.117-5.127l-3.698-3.697c-3.33-3.33-6.657-6.663-9.984-9.997-3.483-3.489-6.969-6.975-10.454-10.462a53129.948 53129.948 0 0 1-19.772-19.793 77466.345 77466.345 0 0 0-22.52-22.542C0 1.02 0 1.02 0 0Z" transform="translate(322)" style="fill:#000"/><path d="M0 0h132c-3.773 4.402-7.395 8.52-11.467 12.587l-1.562 1.565a3472.414 3472.414 0 0 1-5.127 5.117l-3.697 3.698c-3.33 3.33-6.663 6.657-9.997 9.984-3.489 3.483-6.975 6.969-10.462 10.454a53129.948 53129.948 0 0 1-19.793 19.772 77466.345 77466.345 0 0 0-22.542 22.52C1.02 132 1.02 132 0 132V0Z" style="fill:#000"/><path d="M0 0v132h-132c3.884-4.53 7.711-8.854 11.926-13.04l1.693-1.693c1.824-1.823 3.651-3.643 5.479-5.462l3.84-3.835c3.354-3.351 6.711-6.699 10.07-10.046 3.41-3.401 6.82-6.805 10.228-10.21 5.508-5.498 11.017-10.994 16.528-16.489a7750.113 7750.113 0 0 0 12.191-12.18l1.602-1.602C-1 0-1 0 0 0Z" transform="translate(454 322)" style="fill:#000"/><path d="M0 0c7.875 6.75 7.875 6.75 11.377 10.256l2.404 2.4 2.563 2.575 2.757 2.756c2.478 2.477 4.952 4.957 7.425 7.438 2.599 2.605 5.2 5.206 7.8 7.809 4.923 4.925 9.843 9.853 14.761 14.781C54.67 53.61 60.256 59.2 65.841 64.791c9.552 9.56 19.102 19.123 28.65 28.688 3.834 3.842 7.67 7.683 11.509 11.521 26 26 26 26 26 27H0V0Z" transform="translate(0 322)" style="fill:#000"/><path d="M0 0h76v1c-6.221.435-12.442.862-18.665 1.282-2.108.143-4.216.289-6.324.436C37.984 3.63 25.06 4.223 12 4l.038 1.938c.165 8.5.317 17 .462 25.5l.036 2.114C13.14 69.37 13.069 105.175 13 141l73 4v-8h1v9H0V0Z" transform="translate(264 163)" style="fill:#000304"/><path d="M0 0h154v75l-2 1V1H2v19h-27v18h-26v19h-26v18h-26v18h-26v19l-4-1h3V92h26V74h26V55h26V37h26V18H0V0Z" transform="translate(235 313)" style="fill:#76ddf6"/><path d="M0 0h75v1c-6.221.435-12.442.862-18.665 1.282-2.108.143-4.216.289-6.324.436C36.984 3.63 24.06 4.223 11 4V2H0V0Z" transform="translate(265 163)" style="fill:#000507"/><path d="M0 0v2c-10.48 3.493-24.899.655-35.875 0l-5.012-.29C-44.925 1.479-48.962 1.24-53 1V0h35c9-2 9-2 18 0Z" transform="translate(334 304)" style="fill:#045e75"/><path d="m0 0 2 1v19h-27l-1-2H0V0Z" transform="translate(235 313)" style="fill:#62c9e2"/><path d="M0 0c-9.97 4.985-24.018 3.11-35 3V1C-23.377-.057-11.671 0 0 0Z" transform="translate(311 164)" style="fill:#000406"/><path d="M0 0v1h-9v2h-6c2.623-5.246 10.208-3 15-3Z" transform="translate(305 166)" style="fill:#056076"/><path d="M0 0h7v1L2 2l5 1v1H0V0Z" transform="translate(301 167)" style="fill:#006481"/></svg>